<?xml version="1.0" standalone="no"?><!DOCTYPE svg PUBLIC "-//W3C//DTD SVG 1.1//EN" "http://www.w3.org/Graphics/SVG/1.1/DTD/svg11.dtd" ><svg xmlns="http://www.w3.org/2000/svg"><metadata></metadata><defs><font id="fonteditor" horiz-adv-x="1000"><font-face font-family="e`¦SäQxfgOS (^UFNOu() W5" font-weight="400" font-stretch="normal" units-per-em="1000" panose-1="0 0 0 0 0 0 0 0 0 0" ascent="1000" descent="-240" x-height="0" bbox="-53 -165 1054 926" underline-thickness="0" underline-position="0" unicode-range="U+4e00-9f13" /><missing-glyph horiz-adv-x="1000" d="M850 30 L150 30 L150 730 L850 730 L850 30 ZM190 660 L190 100 L470 380 L190 660 ZM220 70 L780 70 L500 350 L220 70 ZM500 410 L780 690 L220 690 L500 410 ZM810 100 L810 660 L530 380 L810 100 Z" /><glyph glyph-name="uni4E00" unicode="&#x4e00;" d="M29 397 Q394 406 793 418 L870 476 Q906 427 900 434 Q911 421 929 402 Q952 378 958 371 Q972 355 966 327 Q928 307 930 307 Q918 302 897 306 L718 341 Q596 350 546 340 Q538 338 532 340 Q502 346 380 334 L218 313 Q191 309 132 295 Q113 292 80 283 L29 397 Z" /><glyph glyph-name="uni4EBA" unicode="&#x4eba;" d="M-13 -101 L-6 -87 Q92 -16 89 -19 Q103 -8 134 25 L155 49 Q297 182 373 431 Q398 509 418 582 L424 622 Q447 727 448 734 Q450 744 450 761 Q451 782 452 790 L393 809 Q420 849 518 866 Q575 831 591 819 Q616 803 608 753 L572 737 Q556 687 575 610 Q619 425 708 320 Q798 217 875 168 L940 129 Q984 103 1005 89 Q1009 87 1013 79 L849 17 L848 7 Q803 36 806 33 Q790 51 704 152 Q687 173 690 170 Q657 198 622 268 Q549 411 549 566 Q549 654 548 698 Q548 705 546 719 L540 720 L522 653 Q490 515 478 474 Q440 337 366 230 Q283 112 192 40 L3 -101 L-7 -106 L-13 -101 Z" /><glyph glyph-name="uni5165" unicode="&#x5165;" d="M489 572 Q492 636 496 690 L365 662 Q354 687 334 729 L500 741 Q539 784 536 779 Q539 784 557 833 Q588 769 641 749 L576 685 Q551 647 563 569 Q574 493 593 451 Q637 356 705 297 Q791 226 827 202 L996 99 L1026 79 Q1016 72 1015 73 Q1010 75 856 78 Q849 78 832 61 Q831 60 823 44 Q579 222 510 446 Q490 444 475 419 Q394 283 381 264 Q350 219 302 173 Q229 104 181 66 Q153 44 -13 -74 L-25 -56 L40 -13 Q49 -8 58 1 L144 81 Q241 180 265 214 Q315 286 388 439 Q424 519 440 609 L489 572 Z" /><glyph glyph-name="uni4E09" unicode="&#x4e09;" d="M98 -1 Q90 53 39 80 Q43 84 44 86 L260 84 Q346 84 389 85 Q631 89 752 93 Q770 93 785 105 L841 149 Q887 114 960 31 L918 -13 L885 5 Q828 33 766 34 Q711 38 680 39 Q594 46 569 46 Q494 47 389 42 Q301 38 205 22 Q189 20 133 6 L98 -1 ZM844 675 Q823 632 776 647 Q738 659 687 669 Q639 677 496 666 Q420 661 239 625 L217 625 L159 700 L654 709 L755 772 L844 675 ZM228 397 Q246 398 274 398 L334 397 Q371 396 394 397 Q461 398 591 406 Q616 407 666 444 Q681 456 695 470 Q799 369 794 377 L761 348 Q573 377 284 338 L228 397 Z" /><glyph glyph-name="uni5E72" unicode="&#x5e72;" d="M489 432 Q444 430 436 429 Q328 421 277 413 Q275 413 186 389 L125 372 Q117 370 101 374 L22 460 L492 460 L486 721 Q292 704 219 677 L151 766 Q199 764 212 764 Q324 760 381 760 Q515 760 582 762 Q620 763 696 771 Q710 772 730 786 Q728 785 779 827 L855 744 Q851 738 842 727 Q833 717 829 711 L826 717 L529 728 Q529 725 528 724 Q544 717 569 704 L610 684 Q612 659 573 622 L585 518 L585 473 Q627 459 649 467 Q655 469 666 469 L683 468 Q697 470 755 471 Q800 472 827 480 Q838 484 882 503 Q910 515 904 512 L977 435 L966 404 L940 404 Q880 410 760 424 L632 436 L591 429 Q591 126 589 67 Q587 -21 512 -68 L488 -50 Q488 165 489 192 Q493 288 489 432 Z" /><glyph glyph-name="uni4E0B" unicode="&#x4e0b;" d="M491 -73 Q455 -45 460 2 Q463 41 468 174 L474 311 Q476 395 475 437 L469 646 L469 717 Q397 717 389 716 Q360 713 215 693 L139 683 Q133 682 124 682 L112 681 L73 766 Q59 767 743 773 L826 832 L926 740 Q924 714 917 708 Q908 702 883 706 Q798 721 694 716 L577 719 L527 719 L579 675 L561 654 L561 330 Q562 246 568 80 Q571 17 525 -42 Q525 -41 491 -73 ZM584 591 Q615 585 628 584 Q714 574 778 531 Q822 500 833 463 Q846 419 808 378 L796 364 L763 352 L729 377 Q691 482 581 585 L584 591 Z" /><glyph glyph-name="uni4E0E" unicode="&#x4e0e;&#x8207;" d="M676 242 L682 334 L592 334 L590 367 L669 373 L685 469 Q693 470 617 464 L598 495 L678 495 L678 615 L600 605 L588 641 L673 641 L710 698 Q761 676 791 627 Q767 609 763 575 Q762 565 762 546 Q762 525 761 517 Q758 481 756 423 Q755 347 754 329 L748 243 L748 214 L755 214 L762 240 Q786 238 801 238 Q806 242 843 277 Q854 269 875 257 Q898 244 907 238 Q943 213 953 177 Q940 156 904 167 Q818 197 736 198 Q605 203 568 202 L349 193 L311 193 Q185 173 96 161 L61 209 L239 218 Q238 279 208 592 L159 616 Q170 623 186 635 L210 657 L280 631 L329 663 L312 695 L342 711 Q384 660 412 624 Q398 619 271 605 L282 463 L334 473 Q367 479 389 482 L396 456 L284 442 L294 340 L404 364 L407 329 L354 329 L302 318 Q296 302 300 271 Q305 239 300 222 L492 236 L521 549 L449 540 L449 774 Q445 778 432 787 L412 802 L472 828 Q518 799 537 788 L518 754 L508 693 Q524 692 541 706 Q566 725 573 728 Q589 702 599 684 L506 671 Q495 596 503 565 L545 603 Q573 575 578 569 Q585 559 583 542 Q582 527 577 496 L571 449 L568 389 Q567 352 564 329 Q564 332 544 242 L676 242 ZM558 167 Q723 119 801 55 Q814 44 812 26 Q804 -35 748 -51 Q697 58 541 165 L558 167 ZM297 71 L288 81 L340 128 L346 123 L342 158 L399 163 Q432 120 429 91 L373 62 Q338 43 315 32 Q290 20 238 0 Q195 -16 109 -46 Q100 -49 88 -55 L66 -64 Q61 -66 49 -68 Q47 -64 47 -61 L297 71 ZM422 495 Q462 473 474 420 Q486 366 456 327 Q437 368 436 374 Q431 402 422 495 Z" /><glyph glyph-name="uni4E07" unicode="&#x4e07;" d="M529 35 L484 103 L487 107 L570 78 Q640 172 700 441 L518 423 L455 314 Q372 179 262 91 Q255 85 109 -9 L66 -37 L40 -40 L37 -31 L177 77 Q278 179 356 308 Q436 445 461 558 Q463 569 470 585 L479 612 L479 643 L447 660 L487 684 L486 689 Q464 689 454 687 Q336 659 267 640 Q253 636 224 625 Q196 614 181 610 Q176 609 143 611 Q140 642 84 709 Q537 732 788 746 L851 799 Q883 775 947 729 Q972 709 955 682 Q935 670 928 665 Q759 686 741 687 Q706 689 650 690 L556 692 Q575 668 611 660 L623 637 Q600 620 548 500 Q650 500 662 499 Q707 496 759 540 L830 485 Q846 472 846 455 Q846 439 831 425 Q836 429 797 403 L757 223 Q734 119 686 61 Q667 38 631 12 Q610 -5 581 -16 Q575 -19 529 -27 L529 35 Z" /><glyph glyph-name="uni4E0A" unicode="&#x4e0a;" d="M36 47 L456 47 Q456 55 458 85 Q460 109 460 123 Q456 338 453 442 Q449 599 448 675 Q446 728 403 744 Q405 743 396 752 L489 802 L582 765 Q601 720 549 678 Q549 554 550 529 Q550 527 564 495 L642 507 L712 560 Q718 553 755 523 Q782 500 795 480 L771 458 L655 458 L551 451 L551 49 Q604 49 629 50 L688 53 Q727 55 746 55 Q766 56 829 102 Q836 106 857 125 L963 38 Q935 -17 878 -6 Q825 4 704 2 L394 -4 Q337 -6 223 -20 Q226 -20 79 -42 L36 47 Z" /><glyph glyph-name="uni5C71" unicode="&#x5c71;" d="M737 81 L264 59 L264 6 Q224 -59 207 -67 Q192 -65 185 -48 Q175 -27 171 -24 Q184 105 175 508 L118 543 Q182 582 228 579 L242 567 L281 558 L271 518 L250 508 Q260 242 264 115 Q278 113 300 111 L318 97 L341 114 L445 114 Q459 132 459 202 Q459 242 456 322 L453 443 L453 731 L452 744 L392 781 L508 826 L564 802 Q581 782 582 769 Q583 757 567 733 L544 700 Q548 597 542 559 L547 485 L530 473 L547 461 Q549 421 549 292 Q549 186 555 122 Q578 122 647 124 Q703 125 738 123 Q739 140 742 546 L676 580 L778 615 L875 572 Q889 542 866 522 Q844 501 845 471 Q849 325 850 252 Q853 85 852 77 Q842 -22 762 -62 L725 -41 L737 81 Z" /><glyph glyph-name="uni5343" unicode="&#x5343;" d="M469 -79 L455 -37 Q474 97 472 413 Q215 384 109 348 L74 436 L468 444 L468 682 L321 659 Q184 641 179 642 Q469 723 608 823 L595 846 L598 850 L631 834 Q692 804 717 765 Q738 737 718 719 Q594 701 527 690 Q538 678 564 667 Q591 655 601 645 Q605 627 591 608 L569 576 L569 449 L734 449 Q782 450 832 497 L861 518 L925 443 Q926 416 895 388 Q786 428 570 411 Q570 353 571 325 L574 66 Q573 -25 499 -91 L469 -79 Z" /><glyph glyph-name="uni5915" unicode="&#x5915;" d="M85 -114 L82 -106 L87 -99 Q234 -30 401 98 Q511 183 597 313 Q598 314 601 325 L555 341 Q524 436 452 496 Q332 323 122 211 L102 214 Q152 249 163 258 Q279 346 329 420 Q421 554 461 678 L500 807 L458 856 L559 879 L607 828 Q617 794 592 755 Q588 749 549 663 L749 663 L824 758 L918 647 Q916 613 867 590 Q745 381 728 355 Q674 270 548 148 Q464 66 284 -23 Q273 -28 147 -94 Q129 -103 91 -119 L85 -114 ZM638 376 Q702 481 757 632 L521 610 L460 504 Q605 446 625 423 Q627 393 629 379 L638 376 Z" /><glyph glyph-name="uni4E5F" unicode="&#x4e5f;" d="M910 240 Q927 140 928 137 Q930 130 971 40 Q944 -9 942 -10 Q905 -29 853 -38 Q835 -41 798 -43 Q761 -45 743 -49 Q639 -69 512 -58 Q487 -56 447 -55 Q393 -54 382 -53 Q376 -52 351 -45 Q335 -41 338 -40 Q321 -47 302 -37 Q297 -34 287 -26 L272 -17 Q254 -9 247 29 Q242 52 240 117 L232 266 Q207 252 109 174 L28 236 L236 365 L236 559 Q230 562 218 566 L196 575 L244 612 Q326 617 349 560 L311 516 L300 404 L450 497 L450 757 L399 788 Q452 824 489 823 Q529 821 575 777 Q578 733 546 708 Q537 702 537 680 L530 548 Q633 609 643 616 Q654 623 676 658 Q674 656 696 699 Q783 652 801 627 L755 564 L755 403 Q755 341 754 328 Q748 262 742 232 Q730 177 675 134 Q651 114 628 124 Q612 179 565 182 Q578 195 604 198 Q632 200 643 208 Q662 275 664 595 L538 500 L539 218 Q540 164 539 131 Q539 61 494 24 Q493 23 492 14 Q747 39 852 88 Q873 146 910 240 ZM299 324 Q286 171 309 71 L346 26 L468 11 Q449 26 451 62 Q455 118 455 191 Q455 233 453 303 Q451 390 451 415 Q451 408 448 438 L299 324 Z" /><glyph glyph-name="uni98DB" unicode="&#x98db;&#x98de;" d="M15 -73 L50 -49 Q170 29 225 115 Q270 185 273 266 L278 323 L138 284 Q123 304 87 356 L277 371 L277 504 L190 475 Q136 459 108 456 Q102 450 223 520 L335 591 L328 638 Q373 643 403 648 L449 573 L314 512 L370 480 L353 446 L353 385 L459 399 Q460 503 448 718 Q334 699 218 682 L186 763 L203 767 Q281 757 472 766 Q536 769 645 773 L714 840 L778 764 L721 726 L706 626 Q700 562 744 509 Q782 464 845 438 Q841 434 924 573 Q915 471 916 466 Q916 463 950 362 L924 332 Q878 322 827 343 Q724 388 677 459 Q647 505 646 550 Q642 606 638 720 L491 720 Q489 716 489 713 L561 668 Q535 649 532 620 L532 566 Q533 545 530 440 L530 413 L602 424 L642 472 L711 397 Q650 346 679 254 L785 342 Q802 340 826 300 Q817 287 795 280 Q768 270 761 265 L818 244 Q859 223 863 204 Q867 181 828 146 L816 137 L796 142 Q752 229 714 250 L685 243 Q695 213 697 211 Q763 130 865 94 Q890 121 905 172 Q926 243 931 254 L937 253 Q937 236 935 228 Q920 136 945 81 Q948 74 984 12 L937 -38 Q815 -24 765 14 L735 36 Q715 50 705 58 Q632 117 617 210 L597 376 L531 369 L531 263 L537 68 Q538 37 518 11 Q498 -16 465 -26 Q455 17 455 12 L457 208 L457 359 L351 338 Q336 240 334 234 Q310 151 286 115 Q253 63 200 24 Q181 10 44 -73 Q41 -75 18 -80 L15 -73 ZM836 496 L809 501 Q759 611 714 611 Q813 686 836 747 Q859 730 891 679 Q871 664 826 649 Q780 633 760 619 Q813 601 826 595 Q864 577 872 545 L836 496 Z" /><glyph glyph-name="uni99AC" unicode="&#x99ac;&#x9a6c;" d="M121 369 L250 369 L240 732 Q240 767 226 773 L182 787 L182 795 L265 833 Q264 834 310 819 L332 788 L652 788 L757 839 Q790 784 784 793 Q786 789 791 783 L799 773 Q807 761 801 747 Q590 752 563 750 L572 720 L570 720 L554 652 Q672 636 726 685 Q786 641 782 602 L746 605 Q721 607 709 607 Q631 611 591 611 L558 598 L558 525 L651 525 Q674 538 723 561 Q758 528 772 511 Q787 495 771 481 Q647 488 608 489 Q573 491 559 470 L559 385 L768 378 L817 441 Q872 404 879 384 Q863 363 838 237 L834 210 Q832 193 830 183 Q809 83 804 69 Q792 35 762 5 Q693 -62 641 -78 L631 -80 L590 28 L655 17 Q723 120 759 345 Q413 367 162 311 L121 369 ZM467 646 Q467 739 462 752 L309 740 L309 640 Q325 641 388 640 Q436 639 467 646 ZM463 486 Q309 466 322 470 L322 387 Q350 373 396 377 Q451 382 468 378 Q489 435 463 486 ZM313 599 L313 524 Q359 511 470 522 L470 610 L313 599 ZM311 97 Q310 102 306 114 Q303 125 303 131 Q303 177 305 265 Q305 267 310 282 Q331 277 379 232 Q408 157 345 97 L311 97 ZM187 249 Q245 204 234 137 Q223 70 154 39 Q141 47 138 52 Q136 57 136 82 Q177 144 187 249 ZM527 147 Q522 144 514 136 Q505 126 502 124 Q487 112 468 125 L452 301 Q520 263 530 245 Q545 219 527 147 ZM613 301 L697 247 Q704 197 699 177 Q694 158 665 134 L630 143 L605 296 L613 301 Z" /><glyph glyph-name="uni4E95" unicode="&#x4e95;" d="M681 -41 Q637 -25 637 13 L631 236 L631 324 L462 314 L457 244 Q455 218 451 211 Q410 126 368 96 Q221 -13 180 -40 Q174 -44 60 -101 Q55 -104 47 -99 L128 -52 Q236 11 313 116 L334 143 Q377 185 384 268 Q384 275 388 309 L138 274 L96 339 L386 357 Q391 391 390 453 Q388 520 391 550 L231 530 L198 602 L379 602 Q378 598 372 765 Q367 770 334 796 L409 832 L448 826 L490 792 L459 750 L459 610 L621 610 Q626 644 621 698 Q614 769 614 788 L579 818 L650 862 L743 830 Q751 809 738 791 L711 761 L711 612 L753 602 L820 666 Q822 663 861 623 Q886 597 883 565 L853 551 Q807 557 719 567 L719 367 L789 367 L860 428 Q924 394 952 336 L936 318 Q912 306 861 316 L726 328 Q728 278 730 184 L733 60 Q729 -13 681 -41 ZM463 359 Q569 365 624 367 Q632 403 627 470 Q622 537 629 567 L463 554 L463 359 Z" /><glyph glyph-name="uni5929" unicode="&#x5929;" d="M18 -65 Q358 67 409 449 Q128 410 144 413 L105 488 Q355 490 415 495 L415 721 L96 699 L74 754 L304 754 L427 761 Q438 762 458 762 L489 762 L604 768 Q692 775 678 775 Q706 774 736 806 L763 833 Q782 822 801 789 Q822 756 838 745 L816 715 L509 725 L541 676 Q508 655 504 597 Q504 590 496 502 Q565 500 676 514 L739 567 L833 488 Q820 458 793 461 Q748 465 728 466 Q722 467 713 465 L698 464 Q656 460 635 459 L546 459 Q548 422 551 415 Q589 298 624 254 Q640 234 714 175 Q711 178 754 148 Q829 97 957 48 L982 36 Q957 27 959 27 Q874 27 809 -6 Q783 -19 762 -5 Q668 61 635 91 Q586 137 562 211 L551 236 Q539 324 523 452 L494 452 L479 357 Q460 230 382 136 Q340 84 257 38 Q198 4 103 -44 Q79 -57 50 -68 L24 -74 L18 -65 Z" /><glyph glyph-name="uni65E0" unicode="&#x65e0;&#x7121;" d="M84 140 Q76 194 41 211 Q36 209 157 222 Q176 224 270 227 Q274 287 277 379 L148 359 L77 423 L283 428 L283 551 Q230 513 124 435 L120 441 Q235 569 250 590 Q263 608 352 765 L321 816 Q363 827 404 835 Q451 785 456 779 Q460 774 461 764 L463 750 L392 664 Q392 662 394 656 L457 653 Q481 655 547 663 Q603 670 636 673 Q647 674 742 674 L816 738 L876 658 Q866 636 857 631 Q849 626 827 628 Q812 629 729 629 Q735 616 756 607 Q778 597 785 588 L785 554 L764 519 L764 460 Q786 454 803 468 Q808 472 817 482 Q826 491 831 495 Q872 485 906 432 Q914 421 908 412 Q902 404 888 402 L762 410 L762 224 Q774 222 809 249 Q852 244 901 293 Q934 278 959 221 L930 189 Q827 198 821 199 Q799 203 688 208 Q614 212 576 212 Q519 212 462 206 Q402 198 282 178 L84 140 ZM789 -39 Q755 100 671 190 L678 197 Q723 176 732 169 Q788 129 840 85 Q846 79 861 55 Q883 18 859 -14 Q834 -49 789 -39 ZM196 -76 L176 -51 Q175 -51 175 -50 L291 155 L301 158 Q315 133 315 128 Q320 52 293 -10 Q277 -46 238 -60 L196 -76 ZM424 231 L424 400 L350 388 L343 231 L424 231 ZM346 605 L343 597 Q361 581 355 538 Q348 489 352 438 L422 438 L422 619 L346 605 ZM644 41 Q640 0 634 -12 Q621 -37 585 -40 Q576 -27 576 -2 Q576 30 574 38 Q577 29 563 120 L552 203 Q598 177 644 41 ZM628 602 L628 449 L683 452 L683 630 L632 630 Q617 629 582 625 Q582 621 581 620 L628 602 ZM546 445 L546 627 L442 619 L441 611 L494 588 L498 442 L546 445 ZM627 406 Q609 285 627 245 L682 245 Q680 264 682 329 Q683 380 676 412 L627 406 ZM434 181 Q443 175 461 128 Q471 101 483 43 Q490 12 470 -15 Q451 -42 419 -46 L434 181 ZM495 405 L495 241 L549 241 L549 414 L495 405 Z" /><glyph glyph-name="uni4E91" unicode="&#x4e91;" d="M495 391 Q384 382 121 325 Q109 331 106 349 Q103 370 99 375 Q93 383 80 395 Q63 411 58 417 L74 423 Q165 427 208 428 Q282 430 317 432 L403 436 L591 442 Q608 442 701 450 L718 452 Q773 442 838 502 L855 513 L940 442 Q943 400 942 408 Q924 382 896 379 Q883 377 844 383 Q747 399 699 396 Q688 395 588 405 L592 387 Q596 378 608 360 Q633 315 584 297 L554 288 Q541 282 532 271 L499 232 Q381 117 343 76 Q379 79 519 79 Q628 80 695 94 Q690 129 656 164 Q609 212 601 224 L680 201 Q762 168 812 142 Q844 125 870 76 L837 34 L871 34 Q870 -3 846 -20 Q821 -37 782 -29 L715 77 Q510 44 201 -43 L177 -27 Q180 13 121 74 L292 74 Q473 292 475 374 L495 391 ZM821 735 L816 701 Q796 683 717 683 L517 685 Q455 683 397 676 Q374 673 339 667 L268 655 L215 736 L306 736 Q399 736 446 737 Q527 741 570 742 Q622 745 628 744 Q650 742 672 760 L728 803 L821 735 Z" /><glyph glyph-name="uni4E94" unicode="&#x4e94;" d="M64 87 L323 87 Q334 117 389 389 L260 374 L228 439 L398 439 L437 671 L187 637 Q176 694 150 711 L154 719 L701 719 Q717 736 745 768 Q769 764 802 735 Q835 705 841 681 L818 653 Q687 679 499 672 L497 666 L551 640 L520 603 L517 604 L480 446 Q484 445 618 442 L667 500 Q716 485 758 427 Q752 423 721 399 Q715 289 708 96 L768 90 L836 151 Q938 45 935 54 Q931 24 898 5 L829 20 Q786 30 760 35 Q728 40 680 40 Q555 42 493 40 Q445 38 356 28 Q301 22 191 6 Q176 4 154 -1 L120 -8 L64 87 ZM416 92 L594 92 Q604 134 604 138 Q612 258 616 378 Q617 384 614 411 Q527 413 471 395 L416 92 Z" /><glyph glyph-name="uni4E0D" unicode="&#x4e0d;" d="M528 -38 Q534 89 528 385 Q457 323 465 329 Q452 318 413 288 Q381 263 362 247 Q351 238 200 145 Q180 133 44 68 Q42 67 22 67 Q22 71 21 74 Q91 114 125 135 Q164 159 240 211 Q314 260 481 459 Q489 469 505 487 Q525 507 532 516 L478 616 L482 621 L521 590 Q549 567 561 558 Q614 633 626 697 Q344 686 172 637 L136 720 Q260 717 476 729 Q716 743 817 743 L880 814 Q969 713 976 702 L956 680 L665 698 Q678 678 715 653 Q749 630 760 610 Q702 570 614 470 L635 395 Q625 345 625 336 Q627 250 635 71 Q638 30 619 -9 Q604 -44 561 -54 L528 -38 ZM910 122 Q864 130 853 177 Q838 237 764 319 Q749 336 691 387 L661 411 Q666 421 665 418 L715 401 Q834 356 922 305 Q953 288 968 250 Q983 213 974 179 Q966 150 943 140 L910 122 Z" /><glyph glyph-name="uni5C11" unicode="&#x5c11;" d="M477 758 Q448 781 414 805 Q464 831 512 812 L560 794 Q619 775 579 729 L570 718 L570 624 L576 446 Q576 355 572 323 Q565 271 518 234 Q509 227 474 208 Q439 273 435 277 Q425 286 404 296 Q376 308 370 312 Q387 317 416 317 Q452 317 466 319 Q479 408 477 758 ZM232 -6 Q214 -14 87 -59 L64 -59 L61 -51 L94 -33 Q251 40 262 46 Q308 72 421 148 Q522 217 551 243 Q559 250 677 377 L668 443 L680 446 Q765 398 804 346 Q764 306 757 301 Q737 286 705 265 L652 230 Q640 222 615 203 Q591 184 578 175 L514 136 Q492 122 484 116 L232 -6 ZM702 592 Q818 546 846 533 Q926 495 937 437 Q937 433 939 429 L939 420 Q916 382 894 372 Q873 362 842 376 Q813 456 681 590 Q685 594 687 595 L702 592 ZM227 593 L239 585 Q269 493 274 474 Q278 460 274 437 Q268 402 260 382 Q252 365 234 345 Q192 302 142 308 Q120 336 148 368 Q191 415 225 529 L225 563 L227 593 Z" /><glyph glyph-name="uni65E5" unicode="&#x65e5;" d="M212 735 Q251 752 294 768 Q343 732 345 729 Q347 727 355 685 L372 703 L623 716 Q646 738 701 793 Q744 753 787 716 Q777 664 744 644 L733 613 Q746 604 748 586 L749 569 Q749 558 750 552 Q751 544 751 531 L751 509 Q758 423 770 234 Q775 178 773 159 Q766 65 707 18 Q683 -2 642 18 L651 91 Q532 93 343 75 L340 101 Q338 101 337 102 Q332 77 332 74 Q332 69 334 56 Q335 45 333 39 Q314 -9 282 -33 L256 -10 L258 26 Q266 106 266 115 L259 379 L259 605 Q259 656 258 659 Q256 666 227 716 L212 735 ZM633 392 Q615 381 614 381 L339 369 L339 120 L360 122 Q370 119 372 103 Q377 121 388 125 Q389 126 409 127 Q423 128 462 129 Q496 129 515 131 Q543 133 587 138 Q648 145 661 146 L668 171 Q670 264 667 338 L650 679 Q659 684 499 668 Q469 665 420 663 L337 658 L337 411 L518 420 L562 471 L633 392 Z" /><glyph glyph-name="uni4E2D" unicode="&#x4e2d;" d="M454 345 Q378 339 257 332 Q251 214 194 170 Q185 162 164 159 Q172 421 160 563 Q125 576 116 580 L117 587 L206 630 Q311 570 443 602 L443 779 L391 819 L488 852 L569 823 Q587 805 572 780 Q545 726 545 727 Q541 706 532 602 Q595 605 713 609 L787 674 Q785 677 783 683 Q808 671 807 672 Q814 662 847 628 Q873 600 883 578 L845 551 Q834 507 840 423 Q849 322 749 246 Q722 260 720 291 L721 318 Q721 335 719 345 Q629 356 543 342 Q543 68 542 44 Q538 -22 475 -76 Q473 -78 438 -92 Q436 -54 435 -56 Q434 -59 446 93 Q449 136 454 291 L454 345 ZM727 379 L727 578 Q697 571 630 571 Q569 571 538 560 L538 379 L727 379 ZM252 371 L447 371 L447 561 Q422 557 347 552 Q286 548 252 537 L252 371 Z" /><glyph glyph-name="uni6C34" unicode="&#x6c34;" d="M845 43 Q733 117 673 209 Q626 280 603 431 L592 431 Q588 430 576 425 L582 268 Q590 89 585 59 Q574 -7 507 -71 Q506 -72 481 -82 Q461 -26 456 -18 Q454 -14 412 35 L476 35 Q503 50 503 82 Q505 266 504 318 Q503 368 490 640 Q486 701 483 728 L475 763 L430 775 L520 842 Q524 842 530 839 Q586 803 582 805 Q607 793 608 764 L576 728 L576 457 L584 453 Q699 517 768 574 L730 594 L733 603 L825 617 Q830 607 841 590 L858 565 Q877 533 875 503 L632 442 Q646 392 648 387 Q711 266 800 220 Q826 207 872 181 Q922 153 944 142 L1012 119 L991 108 L910 84 Q901 80 867 61 Q862 58 845 43 ZM349 459 Q326 462 187 411 L142 474 Q153 479 159 480 Q262 485 278 489 Q375 512 397 542 L410 554 L416 557 L464 495 L467 471 Q465 468 465 466 Q446 450 381 309 Q330 194 238 108 Q199 71 13 -50 Q5 -56 -11 -56 Q-3 -37 52 1 Q236 128 293 284 Q304 314 320 363 Q341 429 346 442 L349 459 Z" /><glyph glyph-name="uni898B" unicode="&#x898b;&#x89c1;" d="M272 794 L342 820 L383 797 L674 797 Q716 839 750 855 L803 809 Q820 795 822 743 L787 720 L787 529 Q787 426 788 417 Q793 362 744 297 Q742 294 720 272 Q694 286 690 316 Q689 321 688 341 Q688 357 685 366 Q666 368 381 351 Q379 282 328 261 Q289 285 293 333 L308 504 Q307 494 307 564 Q306 609 306 699 L306 768 L272 794 ZM384 412 Q399 404 525 408 Q649 412 687 421 Q694 484 692 584 Q689 724 689 749 Q630 758 543 754 Q420 750 400 750 L384 730 L384 652 L564 652 L601 684 Q637 659 643 650 Q649 640 639 618 L510 618 Q431 616 383 598 L389 526 L564 526 L604 556 L648 516 L639 495 Q480 486 384 479 L384 412 ZM923 283 Q925 269 925 263 Q924 250 920 226 Q907 159 950 89 Q951 88 965 45 Q911 -1 877 0 Q886 -1 823 -4 Q690 -4 678 -5 Q621 -8 586 30 Q549 70 555 135 Q556 147 556 315 L529 331 L582 356 Q647 327 662 306 Q650 297 633 282 Q621 126 640 84 Q749 66 829 98 Q891 122 901 204 Q903 215 908 272 Q908 273 915 283 L923 283 ZM430 351 Q491 313 512 270 Q487 248 490 250 Q486 248 426 182 Q383 132 347 100 Q300 57 242 12 Q219 -6 169 -34 Q145 -48 60 -91 Q48 -98 35 -95 L58 -79 L202 33 Q270 86 344 186 Q358 204 405 296 Q411 307 430 351 Z" /><glyph glyph-name="uni624B" unicode="&#x624b;" d="M511 311 Q306 296 113 251 L35 346 L509 346 Q515 376 510 493 Q506 493 247 459 Q238 480 213 527 L509 527 L509 680 L492 668 Q486 674 484 674 L182 632 L170 655 Q511 738 591 775 L554 827 L577 832 Q627 830 652 828 Q673 826 704 797 Q734 768 738 747 Q748 705 706 700 L648 694 Q609 691 589 688 Q572 687 555 678 L621 655 Q631 628 614 606 Q594 582 599 535 L697 543 L753 582 L825 526 Q831 496 821 485 Q811 474 781 478 Q714 487 642 493 Q636 494 602 494 L602 353 L735 363 Q739 365 747 373 Q781 358 815 373 Q827 378 845 389 Q866 403 874 407 L965 334 L959 306 Q944 288 914 294 Q890 298 878 299 L738 310 L621 316 L604 314 L601 286 L602 186 Q603 123 602 85 Q602 -2 525 -59 Q522 -61 498 -72 Q460 -5 381 1 Q380 3 380 7 L405 16 L480 31 Q513 37 513 69 L513 245 Q513 261 511 311 Z" /><glyph glyph-name="uni9577" unicode="&#x9577;&#x957f;" d="M959 20 Q899 16 822 -53 Q784 -51 691 17 Q596 86 557 141 Q475 72 311 -68 Q313 -69 315 -73 Q311 -73 301 -75 L286 -75 Q287 -23 234 27 L292 42 Q299 83 292 310 L67 252 Q72 300 40 332 L143 343 Q241 349 291 353 Q288 353 319 363 Q322 390 322 386 Q318 467 317 505 Q317 515 319 538 Q321 559 320 570 Q318 620 312 710 Q309 760 267 780 Q289 794 318 815 Q409 783 431 758 Q570 766 644 769 L718 834 L831 734 L823 699 Q748 721 619 721 Q634 721 424 714 Q400 696 399 668 Q399 663 401 644 Q402 630 401 621 Q448 617 466 618 Q556 622 601 626 Q644 631 656 636 Q667 642 695 672 L774 606 Q764 591 730 591 L643 587 Q589 585 556 583 Q529 581 485 575 L414 567 Q412 567 396 575 L396 489 Q447 485 531 492 Q629 500 666 500 Q690 529 698 540 L788 479 L780 453 Q667 465 397 436 L405 369 Q430 365 591 370 Q660 372 787 374 L839 415 Q855 407 862 401 Q894 374 927 345 Q965 311 926 288 L746 328 L780 259 Q764 239 703 222 L607 199 Q625 176 628 175 Q689 135 716 122 Q764 99 864 59 L946 35 Q947 35 960 27 Q959 25 959 20 ZM541 157 Q511 236 478 329 L367 318 L395 297 L373 253 L373 77 L541 157 ZM590 215 Q645 251 657 263 Q686 292 684 335 Q667 333 606 336 Q556 338 523 328 Q536 307 557 271 L590 215 Z" /><glyph glyph-name="uni4ECE" unicode="&#x4ece;&#x5f9e;" d="M495 196 Q405 11 254 -96 L247 -90 L256 -75 Q324 -12 359 44 Q409 121 445 244 Q453 269 461 321 Q469 372 476 397 Q478 403 483 465 L464 498 L499 523 Q517 525 527 525 Q566 497 573 489 Q579 481 580 458 Q563 423 549 366 Q529 290 524 274 Q554 195 558 187 Q573 157 635 133 L644 211 Q643 305 639 486 L639 547 L663 551 Q734 667 748 790 L723 811 Q736 852 809 845 L859 792 L821 738 L785 681 Q797 673 818 663 Q845 650 851 646 Q889 625 898 589 L886 531 L838 514 L806 531 L812 535 L766 640 L690 547 L756 506 L721 458 L721 325 Q816 386 844 425 L918 359 L913 336 L724 300 L731 114 Q836 103 1019 118 L1020 111 Q959 83 948 75 L885 14 L753 15 Q728 17 714 16 Q650 14 591 55 Q531 96 511 158 L495 196 ZM-20 178 Q23 223 46 244 Q154 344 235 488 Q243 502 259 524 Q307 594 302 649 L361 657 Q393 619 410 596 L348 514 L299 454 L312 451 Q312 447 314 435 L338 425 L321 396 Q310 167 331 127 Q322 97 322 93 Q322 28 272 -24 Q270 -26 242 -44 Q236 -35 229 -21 Q247 29 247 180 Q248 259 247 340 Q247 348 245 364 Q243 382 243 391 Q159 299 -13 170 L-20 178 ZM538 653 Q530 644 501 606 L463 559 Q449 543 399 490 Q394 485 376 488 Q465 617 534 801 L512 811 Q517 807 496 828 L533 853 L573 850 Q629 789 632 781 L555 679 Q570 675 643 650 L654 587 L613 532 L587 546 L546 654 L538 653 ZM51 528 Q67 544 70 546 Q157 598 244 690 Q255 702 319 785 L298 844 Q369 883 433 778 L433 772 L337 692 L290 660 Q180 584 151 566 Q145 562 57 521 L51 528 Z" /><glyph glyph-name="uni4ECA" unicode="&#x4eca;" d="M-46 160 Q22 202 35 213 Q127 291 168 335 Q239 409 284 477 Q331 545 415 689 L458 785 Q460 789 462 806 L425 831 L425 838 L527 861 Q553 839 613 786 Q614 768 596 754 Q574 736 570 724 Q608 628 616 615 Q675 520 757 475 L902 395 Q911 391 1037 346 Q1042 344 1046 334 Q1024 328 1020 328 Q974 327 926 296 L890 256 Q842 274 779 322 Q686 390 668 402 L646 367 Q564 384 370 337 L334 394 L559 423 Q581 447 596 462 Q610 463 625 447 Q644 427 652 423 L581 569 Q574 587 541 723 L522 707 Q475 607 395 506 Q304 390 224 326 Q174 286 68 214 Q48 200 -26 159 Q-30 156 -37 156 L-46 160 ZM624 264 Q600 218 605 57 Q608 -4 578 -54 Q567 -72 529 -100 L505 -100 Q496 -65 494 -55 Q502 -4 500 219 Q334 171 269 151 L240 229 Q348 241 352 241 L468 253 Q490 254 507 279 L545 334 L624 264 Z" /><glyph glyph-name="uni5206" unicode="&#x5206;" d="M510 -56 Q504 -47 496 -29 Q488 -10 484 -2 Q467 27 440 37 L446 47 Q474 47 479 46 Q523 38 543 82 Q576 159 585 219 Q587 234 617 373 L624 406 Q532 393 487 388 L485 380 L536 340 Q522 333 511 325 Q406 155 396 140 Q342 55 269 5 Q207 -39 110 -102 Q111 -101 82 -114 L76 -106 L94 -88 Q195 -12 205 -3 Q211 2 254 53 Q282 86 283 88 Q337 156 370 236 Q374 245 420 365 Q417 366 334 360 L295 421 L622 433 L690 482 L764 385 L727 347 L721 350 L683 197 Q655 72 635 42 Q584 -39 510 -56 ZM639 848 Q644 820 642 812 Q640 804 622 783 Q626 707 689 637 Q718 605 796 551 Q804 545 897 499 Q929 480 934 478 Q984 460 1002 450 Q980 443 976 443 Q921 446 859 419 Q865 422 823 395 Q721 442 642 553 Q591 624 572 783 L450 762 L427 816 Q511 825 505 825 Q551 824 577 863 L590 874 L639 848 ZM-1 271 Q252 452 345 695 L316 733 Q331 745 358 741 Q385 736 394 743 L468 672 Q471 656 460 651 Q457 649 450 648 L439 645 Q280 420 31 274 Q28 272 4 264 L-1 271 Z" /><glyph glyph-name="uni6708" unicode="&#x6708;" d="M335 722 L310 745 L316 751 L294 758 L376 811 L466 759 L754 759 L806 835 L901 733 Q898 728 869 691 Q865 693 863 693 Q861 611 861 570 L864 484 Q867 427 867 398 Q869 247 867 172 Q864 61 772 -10 Q745 -31 727 -15 L727 18 Q717 50 688 60 Q678 63 662 71 L637 83 Q639 89 639 92 L741 92 Q760 122 762 192 Q767 378 766 431 Q766 495 759 707 Q735 720 602 718 Q469 715 434 701 L434 533 Q469 529 526 536 Q597 544 618 544 Q633 564 650 592 L705 534 L705 505 Q494 498 432 487 L424 321 L617 332 L652 392 L708 328 L704 302 L676 297 Q593 302 496 291 Q481 289 456 288 Q426 287 417 286 Q404 229 396 205 Q365 115 295 58 L119 -71 L106 -76 L99 -71 Q119 -55 159 -25 Q239 33 296 124 Q323 167 334 237 Q356 376 350 536 Q348 566 347 616 Q346 678 345 696 Q344 707 340 727 L335 722 Z" /><glyph glyph-name="uni98A8" unicode="&#x98a8;&#x98ce;" d="M710 722 Q555 735 329 721 L315 692 L309 467 Q299 319 248 203 Q245 195 216 148 Q204 131 205 135 Q193 104 136 49 Q123 36 19 -57 Q15 -61 5 -65 L0 -61 L20 -38 Q88 20 149 104 Q224 206 235 317 Q247 441 257 594 Q258 612 256 641 Q252 680 252 689 Q249 739 206 758 Q207 758 193 769 Q221 785 255 802 L332 767 L713 767 L756 825 L824 762 Q821 729 788 701 Q769 590 768 575 Q756 452 769 386 Q788 288 840 218 L856 193 Q866 177 873 168 Q878 161 918 115 L993 252 Q980 143 981 128 Q981 111 1001 1 Q974 -23 936 -7 Q880 17 824 94 Q730 224 710 361 Q692 470 702 532 L705 615 Q706 646 710 722 ZM555 245 Q583 246 639 209 Q695 172 720 137 L720 79 Q718 55 673 20 Q654 33 640 67 Q624 107 614 118 Q414 87 320 40 L276 117 L315 124 L321 114 Q420 137 476 138 Q483 163 481 204 Q478 255 479 269 L450 276 Q439 271 417 263 Q369 194 375 198 Q365 213 365 214 Q361 326 360 382 L360 487 L405 455 L469 455 L469 562 L408 555 L408 557 L362 552 L335 597 L527 597 Q545 597 541 598 Q587 589 614 636 Q616 639 624 647 Q668 603 681 565 Q653 561 600 564 Q547 566 522 562 Q522 557 521 554 L553 536 L529 497 L533 454 L589 454 Q594 460 615 479 Q683 435 687 426 L662 407 L668 271 L537 271 L531 178 L537 145 L604 149 Q598 176 555 245 ZM397 359 L412 309 L469 302 Q483 383 470 420 Q442 425 419 418 Q396 411 394 397 L409 383 L397 359 ZM531 326 Q552 310 560 309 Q568 307 596 314 L602 429 L531 421 L531 326 Z" /><glyph glyph-name="uni706B" unicode="&#x706b;" d="M496 427 L486 383 Q479 355 477 338 Q472 294 450 248 L441 230 Q351 135 331 118 Q183 -10 29 -85 Q10 -94 -6 -88 Q2 -80 9 -76 Q146 9 136 2 Q220 62 319 179 Q368 236 381 282 Q412 393 417 482 Q421 536 425 648 L431 720 Q438 791 386 828 L444 841 Q480 850 496 853 L529 828 Q549 812 561 804 Q584 789 581 760 Q570 743 565 739 Q530 704 519 631 L501 480 L501 456 L550 483 Q545 519 540 566 Q552 568 558 568 L567 493 Q582 501 700 605 Q690 660 688 667 L758 661 L823 581 Q816 555 781 540 L571 451 Q581 380 611 337 Q669 251 707 213 Q769 149 846 104 Q869 91 907 66 Q950 38 967 28 Q979 21 1007 7 Q993 -3 992 -3 Q905 5 809 -43 L798 -43 Q678 93 662 113 Q610 175 592 214 Q573 254 555 334 Q553 343 540 441 L496 427 ZM202 293 L196 346 Q282 479 249 637 Q255 634 313 583 L324 520 Q326 488 324 472 Q309 373 294 338 Q288 322 240 274 L202 293 Z" /><glyph glyph-name="uni4E3A" unicode="&#x4e3a;&#x7232;" d="M64 -50 Q59 -45 45 -27 L75 -7 Q225 83 289 200 Q310 239 363 347 Q396 413 422 553 L420 563 L395 583 Q423 611 451 607 Q477 604 494 571 L681 577 L723 614 L772 576 L722 501 Q724 492 726 474 L749 480 L795 432 L768 401 L739 323 Q737 319 725 305 Q784 313 791 313 Q803 314 849 307 L897 345 Q927 337 952 300 Q956 296 955 285 Q954 274 949 269 Q925 245 907 159 Q887 61 873 41 L837 -13 Q829 -25 752 -71 L704 26 L775 38 Q809 88 852 284 L564 283 L395 277 Q321 120 64 -50 ZM461 693 L448 698 Q346 555 183 461 L176 467 Q186 482 189 484 Q241 521 325 652 L356 710 L328 745 Q372 775 403 753 Q406 751 445 734 Q449 730 458 715 L659 785 L646 825 Q681 841 732 811 Q783 781 786 741 L461 693 ZM419 307 L645 307 L683 425 Q657 423 570 424 Q502 424 461 417 L428 345 L419 307 ZM669 554 L489 546 L464 450 L627 450 L669 554 ZM764 696 L841 669 Q880 651 907 630 Q926 615 924 590 Q921 564 899 552 Q891 548 875 542 Q858 547 839 551 L764 696 ZM393 200 L405 201 Q450 131 402 64 L373 47 Q356 36 344 30 L332 47 L393 200 ZM775 142 Q765 131 729 88 L706 94 L682 230 Q692 236 705 229 L716 222 Q723 217 727 215 Q733 212 742 205 Q753 196 757 194 Q768 187 775 142 ZM587 223 Q623 213 653 173 Q663 69 587 69 L587 223 ZM483 79 Q484 101 479 153 Q475 200 478 226 Q504 221 539 175 Q557 98 496 67 L483 79 ZM574 602 L566 698 Q640 655 646 645 Q614 588 599 582 L574 602 Z" /><glyph glyph-name="uni6597" unicode="&#x6597;" d="M520 366 Q380 350 371 352 Q288 339 120 311 L71 390 Q100 394 147 391 Q201 387 219 388 Q247 389 293 389 L368 390 Q410 391 518 397 Q518 571 517 593 Q514 683 498 789 L463 817 L539 864 Q611 833 604 837 Q638 817 641 788 Q643 756 602 733 L602 400 Q732 415 758 419 Q765 420 792 440 Q803 447 820 461 Q845 452 877 425 Q917 392 928 385 Q931 357 915 344 Q899 331 872 339 Q762 367 604 367 L604 198 Q604 -7 605 6 Q600 -65 546 -104 Q524 -98 522 -97 Q507 -57 519 -26 Q522 -17 522 23 L520 244 Q520 262 522 294 Q525 330 525 343 L520 366 ZM412 485 Q407 479 399 466 Q391 453 387 448 Q372 428 350 426 L330 441 Q309 503 300 521 Q295 532 281 555 Q267 578 261 591 Q297 588 395 538 L412 485 ZM378 634 Q351 635 348 660 Q345 709 318 751 L316 775 L399 745 L437 681 L378 634 Z" /><glyph glyph-name="uni5FC3" unicode="&#x5fc3;" d="M567 371 Q594 289 597 282 Q632 191 680 128 Q701 101 729 90 Q772 75 764 32 Q764 30 751 -13 Q617 -34 633 -32 Q602 -35 492 -37 Q450 -38 407 -8 Q364 21 347 63 Q328 111 326 178 L323 282 Q321 351 319 385 Q318 402 308 495 L258 511 Q257 512 257 516 L334 547 Q392 524 414 484 Q387 458 380 359 Q371 242 390 165 Q403 116 415 98 Q435 73 465 68 Q484 66 608 61 Q608 117 590 219 L562 370 L567 371 ZM569 497 L577 497 Q827 405 866 380 Q916 349 922 300 Q927 249 883 215 Q874 208 861 202 Q830 200 818 207 Q806 214 794 243 Q735 378 636 454 L585 481 Q579 484 567 492 L569 497 ZM76 88 Q156 228 190 438 Q227 381 227 357 Q231 210 198 110 Q182 58 119 38 Q117 37 83 37 L76 88 ZM373 796 Q390 797 419 772 L510 690 L586 744 L592 737 L583 722 Q539 669 548 611 Q550 588 535 576 Q526 569 473 540 L440 571 Q432 724 373 796 Z" /><glyph glyph-name="uni5F15" unicode="&#x5f15;" d="M214 283 L198 539 L161 564 L208 603 L292 578 L412 593 Q418 684 405 723 Q223 697 181 677 L126 751 Q140 749 390 766 L443 822 L530 763 Q548 749 545 725 Q543 702 524 690 L524 546 Q431 550 272 529 L272 395 L432 405 L478 454 L541 408 Q546 381 553 356 L520 337 L475 100 Q435 -5 338 -42 Q333 -44 311 -46 Q324 36 253 85 L260 91 L363 74 L385 94 L444 360 Q339 357 271 343 Q270 266 228 265 L214 283 ZM764 -42 L764 204 L746 564 Q742 626 732 750 L689 767 L689 775 L754 820 Q801 823 863 783 Q879 751 868 736 L830 700 Q835 544 837 513 Q839 466 845 390 L865 84 Q868 44 843 -22 Q833 -49 791 -62 L764 -42 Z" /><glyph glyph-name="uni7389" unicode="&#x7389;" d="M476 369 L225 339 L195 419 Q277 404 477 417 L486 687 Q341 673 191 656 L175 670 L147 726 L720 734 L803 807 Q828 775 833 771 Q872 737 891 697 L858 671 Q809 684 557 684 Q616 621 614 639 Q574 606 574 496 L574 420 L693 426 L774 487 L847 393 Q845 378 832 370 L808 358 Q738 377 571 364 L571 56 Q587 54 595 54 Q736 61 767 64 Q785 65 807 78 L881 126 Q968 16 975 8 L986 15 Q971 -28 941 -39 Q900 -18 782 -9 Q694 -2 622 -1 Q484 4 393 -10 Q372 -13 329 -14 Q286 -16 265 -19 Q230 -23 92 -45 L77 -47 Q71 -41 52 -1 Q38 28 13 35 L16 43 L34 49 Q118 38 318 46 L476 46 L476 369 ZM765 149 Q732 137 721 134 L696 148 Q695 187 622 307 L613 328 L617 333 L671 318 Q746 291 768 279 Q828 246 791 186 Q783 173 765 149 Z" /><glyph glyph-name="uni672A" unicode="&#x672a;" d="M437 392 Q414 403 363 395 L185 370 L164 370 Q165 388 148 402 Q124 421 120 429 Q173 423 475 436 Q488 502 473 584 L246 566 L246 596 L212 634 Q286 624 474 626 L474 776 L426 803 L521 843 L581 812 Q599 785 588 757 Q583 747 557 712 Q555 658 553 626 L665 626 L718 689 Q748 664 788 629 L784 614 Q780 603 779 597 L559 589 Q546 511 553 444 L569 441 Q709 448 695 448 Q765 445 791 509 Q875 438 882 427 Q850 419 855 419 Q836 418 805 419 L754 420 L590 418 L615 376 Q661 309 756 251 Q862 186 966 163 L977 155 L950 136 Q881 117 811 64 Q731 121 718 142 Q710 140 707 143 Q643 207 634 225 Q631 232 619 252 Q609 268 605 278 L562 403 L555 401 L555 216 L531 208 L558 199 L564 45 Q562 -40 513 -74 Q492 -88 477 -79 Q479 53 481 118 Q483 247 472 310 Q466 312 464 312 Q443 288 441 285 Q384 205 276 111 Q236 77 109 -6 Q82 -24 51 -38 Q44 -41 23 -35 Q335 149 437 392 Z" /><glyph glyph-name="uni51FB" unicode="&#x51fb;&#x64ca;" d="M439 194 L174 168 L148 209 L433 227 L436 294 Q400 279 342 271 Q263 259 249 256 L207 249 Q203 263 199 273 L414 316 L409 375 L211 375 Q204 313 168 295 L146 299 L165 451 L23 436 L11 471 L17 477 L40 468 L40 471 Q101 475 137 478 L137 687 Q148 686 173 682 Q194 678 207 677 L280 677 L282 724 Q247 721 180 718 L77 711 L59 747 L279 753 L279 831 L251 844 L291 879 L362 857 Q371 848 366 835 Q365 831 360 823 Q356 815 355 811 L340 758 L419 758 L455 811 L515 745 L486 702 Q498 690 510 680 Q502 571 502 562 Q502 521 470 502 L465 494 Q482 491 493 505 Q512 526 515 528 Q543 496 559 476 Q548 459 523 460 Q481 462 478 461 L509 446 L484 333 Q552 343 653 380 L709 336 L696 312 Q595 305 534 299 Q540 282 529 263 Q516 239 515 232 L648 239 Q684 239 697 266 Q698 268 711 283 Q732 269 790 227 Q781 202 772 196 Q764 191 741 194 L696 189 Q668 197 663 197 L528 194 L528 146 L548 130 L749 130 L806 185 L825 183 L894 109 L869 74 Q756 99 533 95 Q527 14 527 21 Q526 -61 448 -102 L420 -119 Q360 -31 317 -19 Q319 -16 321 -10 L423 -15 L438 93 Q247 81 92 57 L59 114 L431 125 L439 194 ZM510 809 L541 834 L603 826 L617 809 L690 813 L707 838 L728 864 Q732 859 782 807 L742 768 L732 707 Q741 707 770 710 Q791 712 804 711 Q800 711 862 745 L864 722 Q870 685 869 688 Q885 659 856 632 L784 626 L830 560 L704 460 Q721 443 719 444 Q775 426 804 420 Q834 413 904 400 Q975 387 988 383 L980 378 Q974 374 971 373 L946 368 Q930 365 921 362 Q884 352 830 300 Q698 362 646 414 Q640 410 612 394 Q591 381 577 374 Q543 356 503 347 Q510 356 566 407 Q604 442 619 476 Q629 471 589 541 Q573 543 565 545 L524 601 Q542 632 542 792 L510 809 ZM565 592 Q677 594 708 597 Q738 597 741 617 L667 651 L674 773 L637 767 Q616 763 606 747 Q609 654 547 599 L565 592 ZM344 672 L426 672 Q443 690 473 724 L469 730 Q453 728 407 727 Q367 727 344 721 L344 672 ZM170 475 L281 481 L281 525 L195 521 L170 475 ZM288 457 L186 451 Q186 447 185 446 L216 434 L210 401 Q235 403 281 405 L288 457 ZM414 407 L426 462 L349 456 L349 407 L414 407 ZM187 553 Q232 543 285 549 L277 589 Q271 586 228 583 Q199 582 187 553 ZM281 643 L189 643 Q190 626 193 610 Q272 613 283 619 L281 643 ZM346 547 Q355 550 389 551 Q414 552 427 566 Q427 580 426 591 L348 586 L346 547 ZM431 491 Q431 494 433 500 L422 522 L350 522 L347 486 L431 491 ZM346 645 L347 617 L426 617 L428 632 Q430 641 430 645 L346 645 ZM681 543 L675 551 L608 546 L606 537 L648 496 L681 543 Z" /><glyph glyph-name="uni6B63" unicode="&#x6b63;" d="M80 -29 Q80 13 27 78 Q102 70 301 72 Q305 141 300 245 Q292 393 292 415 L277 439 Q275 441 247 461 Q262 469 332 501 L407 464 Q432 452 418 425 Q415 420 408 411 Q401 402 398 397 L398 73 L530 73 L530 230 L533 230 L514 693 Q337 674 348 676 L187 639 Q187 679 146 709 L147 715 L199 714 Q216 713 227 714 L591 736 Q604 737 648 738 Q683 739 705 742 Q712 743 763 770 Q759 767 784 789 L888 712 Q896 687 890 677 Q885 666 856 647 Q785 683 563 694 L560 687 L605 669 L655 652 Q656 631 626 599 L626 415 L725 415 L785 470 L867 412 L837 360 L627 360 Q622 250 637 75 Q667 73 679 73 Q686 73 711 75 Q731 76 742 75 Q776 69 812 100 L860 142 L971 54 Q974 26 965 14 Q957 1 926 -12 Q846 22 746 24 L586 21 L523 22 Q485 23 460 22 Q435 21 375 15 Q320 10 289 9 Q208 6 150 -10 Q129 -15 80 -29 Z" /><glyph glyph-name="uni5317" unicode="&#x5317;" d="M569 733 L520 789 L592 832 Q695 789 683 795 Q703 786 708 766 Q713 745 698 730 Q665 697 654 592 L648 483 L649 474 Q650 469 650 465 Q680 473 715 503 Q762 542 773 549 L742 569 L791 578 Q854 557 874 502 Q868 475 835 470 Q774 462 741 456 Q703 450 647 438 Q643 187 665 80 L744 75 Q758 75 780 78 L815 83 Q851 107 868 175 Q886 246 894 274 Q896 258 897 220 Q898 185 900 166 Q908 104 942 67 Q942 0 874 -3 Q814 -6 740 -4 Q675 -4 649 2 Q613 10 589 43 Q566 75 567 113 Q569 235 569 297 L569 733 ZM115 75 Q114 92 58 160 L131 179 Q175 189 202 197 Q236 207 345 242 L339 441 Q168 399 135 396 L88 462 L339 482 L330 722 L275 755 L337 796 Q336 797 398 776 Q434 764 447 731 Q433 710 418 685 L418 497 Q420 341 422 261 Q423 191 427 49 Q427 -24 369 -72 Q337 -58 339 -23 L343 109 L343 216 L170 78 Q150 63 115 75 Z" /><glyph glyph-name="uni65E7" unicode="&#x65e7;&#x820a;" d="M898 714 Q867 713 796 722 Q729 730 692 727 L678 696 L722 663 Q759 632 719 605 Q675 577 644 552 Q636 553 803 556 L859 606 L919 548 L912 514 Q694 528 638 523 L643 490 Q628 470 631 438 Q635 387 634 382 L747 382 L796 428 Q856 365 854 372 L837 354 L674 362 L674 367 L657 359 L636 367 Q624 373 613 363 L633 353 L636 301 L838 301 L903 344 L958 284 Q943 262 934 258 Q928 256 903 259 L738 271 Q605 271 539 270 Q502 269 430 265 L397 262 L356 199 L320 217 Q324 391 327 484 Q255 413 53 304 L41 308 Q267 445 368 624 L358 661 Q405 668 424 660 Q442 654 463 623 Q462 604 438 584 Q411 563 406 548 Q418 546 582 549 Q623 585 662 664 Q656 667 637 659 Q623 652 616 665 L616 827 Q622 825 590 842 Q592 845 594 851 Q617 858 653 872 L727 823 Q731 810 736 798 L698 766 L699 759 L797 759 L840 799 Q891 752 890 754 Q904 737 898 714 ZM384 -22 Q370 -79 327 -113 Q312 -104 309 -101 Q297 90 293 128 Q293 132 264 181 L309 205 L372 180 L438 211 Q444 214 505 254 Q527 235 551 217 L543 178 L390 159 L372 113 L476 113 L508 150 Q532 130 546 117 L535 88 L380 79 L377 19 Q434 17 563 23 Q684 29 753 25 Q765 32 765 51 Q766 93 765 85 L603 79 L596 116 L764 116 L764 175 L606 165 L594 197 L768 207 L812 257 Q875 226 893 177 L869 139 L857 -7 Q855 -29 809 -75 Q804 -80 782 -94 Q756 -81 756 -54 Q756 -46 759 -30 Q761 -14 761 -7 Q509 -7 384 -22 ZM416 809 Q397 819 393 820 Q398 840 414 852 Q430 863 447 860 Q496 851 521 809 Q517 752 518 738 Q522 674 473 653 Q460 658 457 678 Q453 701 447 707 Q401 709 334 692 Q234 667 220 665 L194 731 L438 738 L416 809 ZM809 514 L867 463 L854 437 L644 437 L638 466 Q720 469 775 473 L809 514 ZM546 358 Q458 358 394 348 L394 297 L546 303 L546 358 ZM401 453 Q418 456 470 457 Q512 458 538 465 Q536 499 534 519 L398 508 Q393 501 393 498 L401 453 ZM411 427 L408 423 L386 431 L402 378 Q396 379 542 379 L542 427 L411 427 Z" /><glyph glyph-name="uni4E14" unicode="&#x4e14;" d="M686 95 L774 95 L829 147 Q860 132 886 99 Q913 65 915 36 L888 14 Q491 99 149 -13 L114 -5 L85 75 Q252 79 327 82 Q336 106 330 352 Q324 598 313 665 L273 686 L331 739 Q378 717 398 707 Q405 684 407 675 L420 695 L588 710 L639 772 Q658 763 662 760 Q694 736 709 722 Q732 699 710 672 L686 646 Q684 536 684 471 L686 95 ZM576 276 Q517 274 405 268 L405 85 L602 93 Q594 479 591 662 L404 645 L404 503 L570 521 L570 473 L404 458 L404 314 L572 321 Q574 304 576 276 Z" /><glyph glyph-name="uni53F6" unicode="&#x53f6;" d="M84 152 Q106 229 104 354 L98 592 Q96 612 94 621 Q88 623 53 630 L116 676 L114 693 Q128 689 185 639 L273 649 L329 691 L369 656 Q397 632 410 620 L381 561 L389 483 L554 483 Q558 534 546 737 L487 750 L591 815 L675 775 L689 751 L641 716 L647 485 L674 492 Q757 485 842 557 Q880 546 938 493 Q956 475 934 435 L916 434 Q904 433 896 434 Q786 441 665 427 Q664 427 656 422 L656 376 L662 155 Q664 101 663 74 Q661 7 610 -49 Q613 -49 576 -56 Q566 -28 566 -25 L567 282 Q568 309 563 423 L432 395 L402 442 L394 439 Q392 415 392 401 L395 344 Q398 305 373 277 L325 224 Q305 239 300 244 L300 294 Q191 281 174 275 Q169 177 114 133 L84 152 ZM294 471 L288 591 L169 582 Q166 536 171 334 Q233 341 303 347 L294 471 Z" /><glyph glyph-name="uni7530" unicode="&#x7530;" d="M120 794 Q161 825 207 818 Q253 811 289 768 L730 768 L782 832 Q815 819 879 728 L867 693 L843 680 L840 672 Q838 611 855 339 Q861 251 857 106 Q855 56 821 17 Q787 -22 737 -36 Q720 -22 730 19 Q735 36 742 80 Q584 85 268 57 Q258 0 247 -22 Q228 -60 185 -72 L160 -26 Q179 199 158 746 L120 794 ZM540 408 L547 130 L667 130 Q675 138 703 133 Q730 129 741 145 Q752 266 736 408 L540 408 ZM449 406 L255 386 L262 121 Q295 119 357 122 Q419 125 449 123 L449 406 ZM251 699 Q244 603 253 460 L446 460 L446 711 L251 699 ZM733 466 L738 466 L729 714 L566 714 Q579 680 541 657 L541 462 L659 462 L706 506 L733 466 Z" /><glyph glyph-name="uni4E4D" unicode="&#x4e4d;" d="M526 -78 Q543 164 528 571 L375 555 Q324 488 85 311 Q82 308 72 306 Q73 306 63 314 L92 340 Q109 356 120 365 Q250 466 320 605 Q376 717 391 779 Q378 791 356 808 L428 851 L516 800 L526 775 Q499 748 465 693 Q426 631 406 607 L432 600 L519 603 Q551 604 610 608 L781 617 Q797 618 813 633 Q818 637 858 677 Q899 653 936 591 L907 566 L596 572 L594 565 Q623 554 655 545 L624 502 L624 427 Q647 421 684 424 Q731 429 743 428 L790 483 L859 427 L818 391 L625 381 L625 249 L793 249 L836 300 Q837 298 872 269 Q895 250 898 223 Q886 214 866 203 Q834 200 747 203 Q669 205 623 198 Q628 62 630 33 Q632 -3 609 -40 Q584 -79 548 -91 L526 -78 Z" /><glyph glyph-name="uni5904" unicode="&#x5904;&#x8655;" d="M357 568 Q354 570 331 577 Q329 573 329 571 L346 563 Q347 550 334 542 L313 529 L323 516 L302 322 Q294 266 270 183 Q243 84 160 4 Q145 -11 70 -73 L45 -92 Q21 -106 25 -103 L20 -96 Q60 -53 69 -46 Q180 49 214 199 Q240 316 249 518 Q252 574 216 599 L211 606 L211 614 L261 640 Q302 640 338 604 Q438 610 492 614 Q496 628 496 634 L490 787 L440 820 L516 862 L604 829 L615 793 L590 774 L586 728 L691 736 L737 782 L810 733 Q800 691 763 692 Q717 693 623 693 L601 688 L580 698 L577 695 L588 678 L588 621 L778 621 L840 674 Q901 636 926 579 Q927 577 924 533 L773 523 Q777 565 780 587 Q758 590 722 588 Q681 586 667 587 Q648 588 613 586 Q574 584 555 584 L598 554 Q592 544 567 508 L657 508 L714 552 L762 513 L748 476 Q609 471 578 460 L561 475 L549 462 L568 451 L576 422 L603 421 Q620 419 630 420 Q679 423 736 452 Q761 464 778 448 Q800 428 803 420 Q806 412 801 393 Q723 361 548 369 Q522 380 516 408 L512 457 Q473 452 375 437 L355 482 L456 488 L502 502 L502 577 L357 568 ZM351 194 Q290 133 268 124 L343 259 Q348 270 393 405 L449 374 L453 343 L423 300 Q474 281 548 339 Q565 336 570 314 Q574 291 586 288 Q590 268 568 256 Q545 243 546 233 Q500 169 504 173 Q494 160 455 119 Q508 92 512 91 Q586 68 705 75 L865 84 Q872 85 893 82 L977 98 L979 92 Q934 63 929 58 Q923 52 894 3 Q772 0 757 1 Q631 5 578 16 Q490 35 444 77 L412 108 L417 83 Q283 -23 179 -58 Q326 36 388 128 L351 194 ZM623 346 L673 312 L671 307 L712 307 L761 342 L800 293 L775 275 Q764 223 773 194 Q809 188 864 214 Q899 189 900 167 Q877 131 817 127 Q756 123 723 156 L717 271 L667 264 L634 175 Q616 132 580 98 Q578 112 579 113 Q621 165 617 285 L617 342 L623 346 ZM362 225 L412 160 Q459 218 478 268 L408 262 L362 225 Z" /><glyph glyph-name="uni534A" unicode="&#x534a;" d="M493 326 L493 456 L291 428 L259 486 L487 500 L487 776 Q455 801 432 820 Q495 838 531 847 Q540 848 555 840 Q584 823 600 810 Q627 788 604 758 Q600 753 572 723 L572 504 Q649 507 658 509 Q665 511 735 550 L803 489 Q789 470 781 456 Q687 474 573 454 L573 327 Q648 329 808 335 L868 385 Q944 318 935 275 L909 257 Q846 280 734 287 Q622 295 573 280 L573 173 Q573 87 572 44 Q572 -42 508 -88 L485 -78 Q488 42 496 276 Q470 283 321 262 Q173 240 126 222 L64 309 L493 326 ZM335 745 L423 729 Q436 706 442 692 Q453 667 428 648 Q402 627 379 605 Q283 517 144 454 Q132 447 113 451 Q247 523 359 681 L335 745 ZM644 713 Q706 701 737 693 Q784 680 813 667 Q867 640 870 602 Q867 593 857 571 Q843 544 815 542 Q787 540 772 567 Q726 648 653 696 L637 702 L644 713 Z" /><glyph glyph-name="uni5934" unicode="&#x5934;&#x982d;" d="M481 610 L539 625 L562 609 L635 713 L633 719 L507 707 L481 763 L753 763 Q801 755 841 799 L862 819 Q917 804 957 744 L946 718 L714 718 L744 682 L617 594 Q618 592 618 588 L758 588 L827 635 L896 582 Q905 549 862 524 L871 387 L877 264 Q875 195 821 149 Q789 155 772 159 L772 205 L586 193 Q583 149 542 127 Q496 139 506 178 Q509 191 512 292 Q517 384 517 458 L514 587 L481 610 ZM144 568 L121 580 Q108 587 101 590 Q140 629 181 611 L197 605 Q207 601 212 598 Q222 593 242 578 L322 578 Q352 626 408 627 L462 565 L443 528 L407 519 L429 510 L429 377 L231 365 Q224 333 214 321 Q204 309 176 302 L150 316 L144 568 ZM591 545 L591 464 L656 461 Q674 459 692 476 Q714 496 722 499 Q751 475 758 462 Q764 450 755 433 Q585 412 588 413 L588 347 Q656 326 720 388 L770 325 Q747 309 746 309 Q738 307 709 307 Q627 301 588 299 Q586 258 584 233 Q604 225 676 230 Q747 234 772 244 Q777 281 777 406 Q776 532 769 548 L591 545 ZM284 96 Q311 225 326 301 L291 324 L360 350 L432 297 L405 235 Q394 206 361 114 Q383 109 423 114 Q462 120 481 116 Q483 117 282 65 Q244 55 182 40 L77 15 Q81 37 42 96 L284 96 ZM85 696 L58 760 Q42 764 345 744 L420 811 L486 729 L467 713 L85 696 ZM913 68 Q951 33 919 -1 Q876 -46 826 -31 Q799 54 706 160 Q736 155 887 92 L913 68 ZM369 -58 Q474 33 503 56 Q527 76 564 119 Q605 168 624 187 L671 126 Q658 106 656 105 Q549 31 506 6 Q481 -8 370 -60 Q369 -59 369 -58 ZM327 536 L232 526 L232 410 Q242 411 280 410 Q309 408 327 415 L327 536 ZM260 190 Q258 188 230 149 Q213 124 189 120 Q185 125 180 133 Q174 143 172 145 Q176 226 128 293 L133 298 L207 264 L260 190 Z" /><glyph glyph-name="uni6C38" unicode="&#x6c38;" d="M460 -81 Q447 -40 439 -26 Q423 0 391 5 Q393 11 393 13 L446 28 L443 44 L464 47 Q472 79 468 294 Q465 510 456 544 L439 548 Q409 543 349 531 L259 513 Q254 512 229 512 L203 571 Q284 573 454 579 L502 633 L575 589 L549 547 L541 548 Q544 496 548 397 L556 99 Q556 -10 478 -72 Q483 -68 460 -81 ZM559 386 L556 393 L706 518 L690 543 Q692 546 748 567 Q756 557 789 527 Q816 503 828 481 Q802 458 800 457 Q774 447 713 430 Q683 421 621 405 Q624 355 682 297 Q755 223 891 170 L997 131 Q977 126 980 126 Q910 125 847 78 Q818 55 790 76 Q688 148 652 210 Q601 304 598 385 Q598 384 594 392 L559 386 ZM2 -41 Q148 46 213 139 Q289 245 343 387 Q304 388 249 372 Q177 352 160 349 Q150 378 142 408 Q278 416 346 419 L342 427 Q364 445 399 472 L462 429 L439 408 Q415 401 407 374 Q387 308 336 225 Q258 96 115 5 L35 -46 Q19 -58 2 -41 ZM415 841 L482 824 Q527 813 540 807 Q608 776 614 741 Q606 723 538 672 L492 683 Q477 757 412 836 L415 841 Z" /><glyph glyph-name="uni5BF9" unicode="&#x5bf9;&#x5c0d;" d="M82 51 Q112 57 186 64 Q252 69 290 80 L295 183 L129 175 Q121 187 115 198 L196 204 L196 207 L281 203 Q283 278 276 292 L105 278 L80 315 Q96 322 122 321 Q155 319 163 320 Q177 322 248 322 Q269 322 333 320 Q360 373 368 395 L397 482 Q302 481 199 465 Q223 447 235 439 Q259 424 266 386 Q271 363 230 330 Q228 332 220 336 L209 343 L186 471 L45 460 Q35 476 18 509 L213 509 Q231 517 229 546 L221 724 L177 779 Q254 783 287 765 L300 730 L284 706 L284 515 L347 515 Q348 521 351 768 L323 815 Q339 817 342 816 Q406 794 427 783 Q456 767 428 730 L415 668 L418 669 Q418 654 423 563 Q444 580 464 614 Q487 656 495 665 L485 728 L527 714 L586 638 Q553 610 546 612 Q520 591 412 526 Q429 516 456 519 Q487 524 496 521 L535 553 L577 504 L567 477 L521 486 Q511 486 435 481 L467 437 Q450 382 392 359 L377 330 L404 317 L426 325 L444 313 Q443 346 483 358 L514 326 Q517 299 491 299 L378 299 L370 278 Q364 265 362 257 Q355 232 370 211 L414 208 L461 243 L485 216 L472 193 Q457 190 415 190 Q381 190 363 183 L363 84 Q432 93 494 99 L511 132 L530 116 Q527 99 523 87 Q314 59 124 -4 L82 51 ZM728 -57 Q708 -37 709 -40 Q700 9 653 30 L655 36 L715 33 Q735 69 739 147 Q740 185 739 247 Q737 324 737 346 Q737 355 742 415 L632 399 L626 417 Q614 390 564 388 L536 439 Q564 441 727 449 Q723 552 720 607 Q717 652 709 744 Q708 751 694 763 L653 795 Q681 818 736 799 Q783 783 824 747 Q825 722 784 693 L805 461 Q836 447 873 465 Q881 469 925 518 Q975 465 969 472 Q983 455 981 445 Q978 434 955 420 L806 420 L811 307 Q814 239 815 196 Q817 118 812 88 Q800 0 728 -57 ZM602 194 L606 196 L563 363 L581 353 Q639 307 652 294 Q681 265 673 226 Q664 187 624 167 L602 194 ZM124 686 Q180 630 184 615 Q192 585 186 571 Q180 557 150 538 Q138 559 138 558 L124 686 Z" /><glyph glyph-name="uni53F0" unicode="&#x53f0;" d="M223 297 L190 313 L244 361 Q319 331 328 326 Q354 313 415 317 L614 335 Q629 337 640 346 Q674 371 718 407 Q735 400 815 325 Q818 291 790 273 Q777 263 775 247 Q768 182 771 161 Q783 63 727 -14 L708 -22 Q657 -28 651 44 L480 44 L370 31 L360 48 Q346 19 322 27 Q322 -90 282 -128 L223 -99 L223 297 ZM682 580 L586 724 Q646 705 657 700 Q722 674 782 643 Q798 634 841 603 Q880 573 868 523 Q856 478 817 458 Q805 451 782 443 Q741 444 723 486 Q716 503 693 541 Q678 540 611 530 Q562 522 532 529 L152 435 L129 453 L135 557 L240 557 Q334 664 414 834 Q403 848 383 869 L463 888 Q502 879 570 817 Q574 788 568 780 Q562 772 524 753 L331 568 L334 561 Q506 559 677 570 L682 580 ZM560 285 Q544 284 445 274 L328 260 L320 73 Q580 87 654 96 Q653 134 646 283 L560 285 Z" /><glyph glyph-name="uni6263" unicode="&#x6263;" d="M630 79 Q630 42 609 11 Q588 -21 557 -30 Q542 -24 544 10 Q557 278 557 331 Q557 348 549 581 L549 611 L651 545 L779 556 L842 614 L911 552 Q914 529 898 512 Q893 506 883 498 Q872 489 868 485 Q881 291 885 216 L871 175 Q830 134 795 153 L787 183 L743 180 Q699 175 658 168 Q634 164 630 173 L630 79 ZM291 37 Q308 100 310 304 Q292 288 221 215 Q167 159 124 132 L94 159 Q93 158 99 161 Q95 192 92 238 Q153 256 306 350 L306 515 L122 489 Q117 499 106 518 L88 549 Q128 544 304 554 Q311 639 301 778 L255 805 L319 832 L408 793 Q413 765 378 724 L378 562 Q398 552 410 558 Q422 564 475 610 L516 560 Q507 542 502 530 L379 520 Q382 507 379 462 Q377 427 390 406 L467 455 L473 446 L383 373 L382 152 Q382 73 381 63 Q380 49 365 12 L341 -34 Q317 -54 293 -72 L265 -56 L265 -21 L222 29 L291 37 ZM617 218 L627 201 Q631 220 660 220 Q672 221 694 220 L728 220 Q739 221 759 224 L792 229 Q795 284 790 375 Q784 484 784 520 Q695 510 626 501 L626 226 L617 218 Z" /><glyph glyph-name="uni8001" unicode="&#x8001;" d="M14 -18 Q14 0 41 17 Q186 115 204 129 Q263 175 357 267 L511 421 Q512 422 514 432 Q328 429 155 379 L142 384 L89 462 L434 462 Q438 475 441 607 L261 585 L238 641 L438 641 Q437 638 440 759 L402 791 Q457 815 481 827 L554 792 L570 760 Q544 741 539 706 Q537 697 536 675 Q535 656 533 645 Q545 630 561 644 L619 690 L668 622 Q686 634 743 722 L708 761 L803 771 Q815 748 835 712 L866 656 Q855 624 828 626 Q794 626 761 588 Q681 498 664 475 L759 475 Q794 475 785 476 Q842 469 890 527 L898 532 Q929 499 986 440 L948 404 Q919 416 783 436 Q663 451 642 445 Q533 354 507 333 L552 290 L528 245 L528 210 Q708 289 716 293 Q695 321 684 334 Q729 347 771 324 Q812 301 820 259 Q813 241 793 235 L757 229 Q708 218 608 202 L525 192 Q520 163 521 113 Q523 51 521 29 L649 23 Q658 26 710 36 Q747 43 764 59 Q788 79 797 114 Q799 120 804 143 Q808 161 812 172 Q838 50 878 15 Q874 -17 844 -28 L803 -39 Q776 -46 761 -51 Q671 -77 525 -57 Q447 -46 450 25 Q452 76 452 180 Q452 203 448 269 Q218 79 14 -18 ZM528 447 Q624 551 647 593 Q592 606 528 601 L528 447 Z" /><glyph glyph-name="uni5171" unicode="&#x5171;" d="M45 362 Q80 367 132 365 L215 363 Q243 364 378 364 Q390 383 390 455 L381 572 L198 552 L160 600 L163 607 L376 607 L376 734 L322 759 Q344 770 410 787 Q467 769 477 743 Q486 717 453 669 L457 611 L622 611 L622 770 L579 797 L579 804 L682 825 Q744 745 743 763 L714 718 L714 615 Q758 613 774 619 Q791 625 848 662 Q860 656 862 654 Q882 638 913 610 L896 577 L714 577 L700 360 L744 362 Q828 362 844 363 Q856 363 872 375 Q889 385 923 409 Q967 369 985 351 L986 321 Q965 299 929 307 Q833 330 721 328 Q557 328 524 326 Q441 321 270 303 L105 282 L96 283 L45 362 ZM468 366 L617 366 L617 581 Q510 575 461 571 L468 366 ZM14 -55 Q208 50 252 87 Q342 162 436 299 Q488 239 487 207 Q304 29 19 -65 L14 -55 ZM771 48 Q739 120 594 268 Q593 265 598 275 L822 183 Q856 170 866 137 Q875 105 853 75 Q832 45 800 37 L771 48 Z" /><glyph glyph-name="uni897F" unicode="&#x897f;" d="M716 64 Q692 75 524 70 Q356 65 304 52 Q308 -20 214 -87 Q204 -59 204 -62 Q215 14 200 328 L194 510 L168 549 Q205 575 232 595 Q286 559 291 558 Q299 556 385 556 Q392 583 382 749 L139 694 L85 791 L109 794 L252 795 Q340 796 394 795 L606 788 Q694 786 712 784 Q749 781 795 817 L832 847 Q900 781 915 768 Q907 756 883 724 Q804 748 595 757 L594 752 Q606 744 641 724 Q619 700 616 698 Q594 684 594 657 L594 568 L701 568 L770 622 L846 553 L807 508 L807 359 Q809 277 817 118 Q820 61 742 -17 Q744 -15 716 -28 L716 64 ZM298 97 Q604 108 717 111 Q717 118 719 140 Q721 158 721 169 L711 524 L591 524 Q576 424 607 357 L635 365 Q646 399 651 419 L688 373 Q707 348 698 323 Q689 297 658 292 L571 284 Q543 337 541 345 Q533 368 533 407 Q532 426 532 523 L495 523 Q487 523 463 521 Q463 295 298 162 L298 97 ZM293 193 Q401 314 391 517 L282 509 L293 193 ZM469 560 Q507 562 530 564 L530 752 L429 752 L428 747 L491 704 L469 677 L469 560 Z" /><glyph glyph-name="uni6709" unicode="&#x6709;" d="M755 475 L472 453 L467 348 Q523 340 630 350 L664 393 L727 344 L727 318 L472 303 L472 172 L634 181 Q644 191 672 223 L738 181 L735 144 L478 127 L478 72 Q480 -8 462 -49 Q445 -92 402 -108 L389 -87 Q403 70 380 430 Q277 343 268 336 Q230 306 148 252 Q74 201 24 183 L18 191 L37 207 L205 327 Q246 361 294 427 Q323 467 447 652 Q376 644 165 587 Q159 624 104 663 Q232 663 454 682 Q470 721 502 793 L470 840 L532 868 Q562 843 628 791 Q621 768 594 736 Q565 702 557 681 Q691 690 738 692 L752 694 Q817 679 871 746 L879 751 Q900 741 930 715 Q965 685 979 676 Q983 653 977 645 Q971 637 952 638 Q939 639 916 642 L880 646 Q762 660 750 660 Q719 661 669 659 Q602 656 588 656 L540 656 Q489 576 439 502 L465 489 L710 512 Q748 514 786 562 L805 584 Q875 525 894 501 Q866 450 875 313 Q878 266 882 172 L885 50 Q885 8 843 -42 Q835 -51 819 -65 L795 -88 Q773 -109 751 -88 Q750 -57 724 -38 Q717 -33 700 -24 L658 2 Q658 7 659 10 L763 18 L773 51 Q773 96 771 182 Q769 194 769 199 L766 368 L755 475 Z" /><glyph glyph-name="uni81F3" unicode="&#x81f3;" d="M468 48 Q466 68 467 146 Q468 207 460 246 L234 213 Q196 265 191 271 L462 285 L462 414 L440 449 L467 469 Q377 447 347 441 Q231 417 233 417 L187 505 L298 505 Q409 632 454 701 Q371 704 171 668 L123 730 L731 753 Q752 770 792 807 L895 709 L856 683 Q813 695 581 708 Q578 708 557 700 L560 673 Q549 668 377 527 Q378 527 375 517 Q468 490 650 536 L572 626 Q572 628 574 632 L604 632 Q711 605 767 552 Q786 535 794 519 Q823 458 759 425 Q730 424 710 448 Q704 455 695 470 L680 492 Q621 501 572 483 L529 477 Q513 475 505 475 L503 468 Q491 475 575 431 L558 392 L555 393 L549 293 L657 293 L717 334 L796 257 L767 229 Q677 256 553 239 L553 44 L653 55 L701 52 Q780 48 822 87 L852 109 L949 16 L903 -10 Q842 9 838 9 Q738 20 676 19 Q572 19 440 9 Q308 0 229 -14 Q142 -29 123 -44 Q127 -41 106 -48 L50 22 L468 48 Z" /><glyph glyph-name="uni6B64" unicode="&#x6b64;" d="M146 -56 Q133 20 70 62 Q90 54 120 61 Q160 69 172 69 L153 429 L112 473 Q167 510 185 521 L217 505 Q227 500 255 488 L250 471 Q233 451 233 409 Q234 303 238 93 Q238 91 241 88 Q307 81 337 115 L337 314 L328 592 Q326 643 320 667 Q319 672 295 722 Q323 741 368 768 Q420 728 450 706 Q435 689 428 679 Q413 656 412 650 L409 466 L413 453 Q439 455 455 455 L500 494 L552 458 Q545 584 539 654 L537 680 Q537 724 506 744 Q511 740 488 753 L581 815 L681 771 Q690 747 670 728 Q636 697 632 689 L632 415 Q679 440 768 540 Q764 545 751 565 L830 565 L883 476 Q853 461 850 461 Q810 462 674 405 L629 383 Q628 338 643 86 Q672 76 820 100 Q864 151 889 287 Q889 182 890 172 Q894 115 930 66 Q920 -3 855 -8 L637 -20 Q570 -25 560 55 Q562 41 555 137 Q301 32 146 -56 ZM415 118 L556 155 Q561 205 557 285 Q552 385 552 415 L415 405 L415 118 Z" /><glyph glyph-name="uni5875" unicode="&#x5875;&#x5c18;" d="M218 700 Q269 739 308 696 Q304 695 462 707 L499 724 L505 801 Q501 807 478 836 L516 852 L640 822 Q645 801 606 765 L603 713 L783 721 L826 779 L919 709 Q924 685 891 667 Q761 687 679 684 L655 591 Q675 607 705 609 Q755 612 752 611 Q764 624 786 650 L880 584 L841 538 L841 447 Q662 450 666 451 L645 411 L639 355 Q710 371 791 426 L844 394 L842 370 L642 333 L650 271 L660 288 Q765 271 829 285 Q843 290 895 372 L907 317 Q911 302 927 260 Q924 228 889 225 L790 216 Q740 216 642 226 Q640 226 608 242 Q599 266 599 271 Q598 296 599 336 L600 400 L595 450 Q568 448 518 443 Q460 437 435 435 L454 415 L454 356 L502 365 L512 385 Q523 389 531 379 Q539 369 537 354 Q510 347 456 331 Q454 291 452 266 L544 289 L548 281 Q535 268 537 269 Q542 272 500 254 L414 218 L319 175 Q313 193 299 229 L392 254 L399 350 L402 377 Q401 398 396 430 Q338 422 308 417 Q288 217 180 92 Q111 14 75 -5 Q73 6 74 7 Q148 84 144 79 Q222 183 238 260 Q268 397 261 593 Q259 675 218 700 ZM228 -27 Q290 -29 388 -26 Q507 -22 543 -22 L543 -14 L530 -8 L539 82 L546 89 L538 105 L524 85 L330 69 L318 108 L504 114 Q504 112 505 111 L534 125 L534 238 Q626 214 636 212 L657 178 L614 128 L618 114 L625 112 Q678 120 686 120 Q748 122 768 156 Q769 158 776 163 Q825 148 829 92 L807 77 Q807 80 806 82 L623 82 L614 -21 L806 -21 L842 33 L859 25 Q900 -9 912 -22 Q939 -47 915 -87 L887 -81 L891 -61 L867 -73 Q787 -53 682 -55 Q549 -57 511 -60 Q461 -63 361 -75 Q332 -79 257 -92 L228 -27 ZM458 564 L319 541 L310 470 L451 480 L458 564 ZM456 674 L421 669 L385 662 Q348 660 335 645 Q322 631 323 595 L450 595 L456 674 ZM745 492 L745 579 L660 579 L660 486 L745 492 ZM507 479 L591 487 Q587 500 589 531 Q590 559 582 574 Q537 569 507 564 L507 479 ZM585 604 L585 681 L563 685 L563 680 L486 672 Q486 669 487 668 L508 659 Q513 634 482 592 L507 581 L518 600 L585 604 Z" /><glyph glyph-name="uni5149" unicode="&#x5149;" d="M951 179 Q957 136 993 92 Q1021 61 990 27 Q984 19 973 9 L959 -7 L827 -37 Q728 -52 650 -22 L635 -19 L596 24 Q580 101 581 224 Q583 383 580 423 L438 417 L435 412 Q476 387 513 361 Q519 340 499 314 Q477 287 449 234 Q402 147 337 90 Q250 11 160 -36 L18 -110 Q8 -116 -5 -112 L4 -101 Q104 -48 215 44 Q239 64 291 129 Q327 177 406 360 Q407 361 418 407 Q400 419 359 412 Q318 405 238 387 Q231 385 215 376 Q191 364 181 373 Q177 387 167 416 Q158 441 153 457 Q399 453 498 462 L498 794 L476 808 Q459 818 446 827 L541 874 Q589 852 635 832 L651 810 Q657 772 601 724 Q595 656 578 487 Q621 535 723 693 Q717 700 708 713 Q698 729 693 735 L743 746 L792 740 Q858 689 842 633 Q789 612 716 560 Q622 493 595 477 Q597 478 590 469 L657 469 L663 470 Q723 463 793 518 L826 536 Q858 512 862 508 Q880 491 898 467 Q922 436 894 406 Q744 423 703 427 Q693 428 642 428 L640 418 L664 408 Q731 386 687 329 Q669 310 668 289 Q663 207 661 105 Q661 102 671 72 Q747 57 878 93 Q894 105 930 187 L951 179 ZM379 494 Q346 503 343 539 Q335 642 272 705 Q284 714 310 705 L396 665 Q434 648 445 611 Q455 574 431 539 Q406 500 379 494 Z" /><glyph glyph-name="uni5F53" unicode="&#x5f53;&#x7576;" d="M653 -44 L661 -14 L643 5 Q620 -17 587 -9 Q571 -5 547 -7 L275 -30 Q277 -30 262 -33 L256 -71 L239 -92 Q227 -106 210 -105 Q202 -84 202 -82 Q202 -72 204 -41 Q206 -15 205 1 Q203 33 197 99 L188 197 L188 245 L153 253 Q161 269 223 289 L261 260 L249 233 L305 262 Q568 273 666 278 L722 331 Q785 261 784 267 Q755 250 754 218 Q753 207 756 189 Q759 166 759 159 Q759 149 762 114 Q765 85 764 68 Q763 -7 703 -67 Q702 -68 679 -76 L653 -44 ZM395 830 Q442 865 483 864 Q523 863 546 828 Q528 790 519 769 L512 656 Q542 670 576 709 Q615 756 632 768 L597 799 L682 809 Q734 771 746 763 L742 730 L520 642 L517 618 L718 629 Q788 619 837 666 Q857 651 883 617 Q911 581 927 568 L909 534 Q849 534 841 533 Q838 533 769 518 L782 591 Q749 597 629 595 L470 590 L461 601 Q449 599 429 597 L424 586 Q295 586 167 561 Q182 497 145 439 L91 412 Q68 424 74 455 L101 563 Q107 591 114 634 L120 660 L129 662 L167 602 L413 614 Q444 680 422 806 Q421 810 395 830 ZM292 287 L280 477 L265 493 Q272 498 300 514 L325 503 Q341 496 350 491 Q437 498 584 507 L647 545 L702 509 L715 478 L690 446 L690 365 Q386 346 365 342 L340 309 L340 291 L316 274 L292 287 ZM358 381 Q393 386 473 391 Q545 396 584 403 L584 482 Q488 473 353 463 L358 381 ZM267 0 Q318 21 340 8 L421 24 L414 124 L259 104 L267 0 ZM660 132 L505 125 L505 29 L660 29 L660 132 ZM253 149 L309 154 L363 154 Q401 157 411 145 L411 239 Q319 231 253 223 L253 149 ZM653 256 Q631 248 584 247 Q539 245 517 236 L522 214 L502 201 L505 161 L658 170 L653 256 ZM232 782 Q238 782 310 752 Q315 750 323 745 L335 738 Q361 724 365 703 Q368 681 349 659 Q344 653 310 624 L295 644 Q289 702 241 762 Q244 758 232 782 Z" /><glyph glyph-name="uni5410" unicode="&#x5410;" d="M234 41 Q227 37 296 47 Q342 52 357 43 L362 50 L529 62 Q523 286 519 402 L406 386 Q383 418 386 432 L522 444 L522 516 L515 691 Q514 725 487 760 Q574 801 630 773 Q671 755 666 720 Q660 686 615 651 L608 451 Q680 459 690 462 Q702 465 735 491 Q744 499 769 528 L865 444 L846 409 Q710 432 612 411 L612 63 Q715 67 760 70 L834 130 Q836 129 894 77 L909 60 Q928 43 929 31 Q929 20 910 1 L895 -12 Q654 58 264 -26 L234 41 ZM265 264 L177 259 Q182 163 124 100 Q89 103 91 136 L97 239 Q101 313 101 348 L98 482 Q96 590 71 640 Q160 643 173 634 L174 610 L268 610 L324 660 Q332 643 364 619 Q394 597 401 576 L371 533 Q371 363 370 328 Q370 319 355 279 Q351 269 331 231 Q312 220 284 208 L265 264 ZM176 310 Q256 317 275 318 L275 557 Q203 553 168 552 L176 310 Z" /><glyph glyph-name="uni5C81" unicode="&#x5c81;&#x6b72;" d="M758 368 Q786 390 830 387 Q835 380 861 362 Q881 348 880 332 L777 172 Q799 121 912 55 L970 140 L974 140 Q974 127 973 120 Q965 46 982 10 Q994 -15 965 -36 Q942 -53 900 -44 Q864 -37 840 -19 Q774 28 735 94 L726 105 Q543 -80 413 -120 L566 9 Q614 50 693 167 Q657 252 641 442 Q391 416 329 405 L310 250 Q299 161 244 64 Q230 38 204 16 L36 -128 L18 -137 L13 -131 L34 -109 Q124 -19 129 -13 Q209 85 226 188 Q234 230 239 297 Q246 389 248 405 L245 430 L213 450 Q240 477 262 478 Q283 478 322 455 L637 471 Q638 490 642 530 L613 542 L649 575 Q663 570 688 563 L730 551 L712 505 L712 477 L775 477 Q753 547 749 562 Q783 572 826 541 Q839 521 805 479 Q829 476 853 492 Q892 519 895 520 Q923 496 949 476 L953 438 L874 438 L734 445 Q737 445 710 439 Q706 326 731 250 L767 323 Q768 327 758 368 ZM927 561 Q547 617 126 515 L108 555 Q107 558 79 585 L343 592 L343 728 L302 753 Q336 783 357 785 Q385 788 438 756 L419 720 L413 598 Q487 602 527 605 L527 829 Q512 839 488 857 Q507 896 558 897 Q610 899 649 861 Q625 815 623 809 Q619 799 617 753 Q701 737 748 800 Q779 778 811 757 L811 719 Q781 713 712 713 Q650 713 616 703 L616 612 Q733 614 791 617 Q802 618 832 634 L870 662 Q923 627 938 581 L927 561 ZM465 63 Q449 74 451 99 L457 282 Q456 277 456 298 L337 284 L333 291 Q348 302 344 301 L507 346 L602 376 L633 336 L619 311 L507 300 Q505 296 503 295 L518 288 Q527 284 532 281 L522 274 L522 157 Q519 113 465 63 ZM266 -106 Q496 31 606 245 L652 182 Q497 0 272 -115 L266 -106 ZM369 260 Q415 183 411 158 Q400 92 351 57 Q323 76 334 104 Q361 171 361 250 Q361 251 369 260 Z" /><glyph glyph-name="uni5E74" unicode="&#x5e74;" d="M611 240 Q611 71 612 51 Q617 -52 531 -91 Q528 -88 520 -82 L511 -75 Q520 -15 522 80 Q524 198 527 232 Q420 233 89 198 L63 242 L301 251 L301 351 L300 370 Q298 381 299 388 Q299 446 278 473 L520 473 L520 647 L373 636 Q206 430 43 346 Q263 523 365 781 L339 835 Q379 844 407 851 L469 797 Q471 796 478 786 L399 678 Q404 668 403 671 Q476 671 490 672 L678 683 Q693 684 709 697 Q739 722 782 760 L844 685 L844 652 L601 652 L598 646 L625 625 Q633 610 624 596 L604 571 L604 476 L687 476 Q777 528 776 528 L831 475 L831 444 L603 444 L609 261 L812 261 L892 330 L915 330 L957 262 L950 230 Q905 235 611 240 ZM383 358 L383 254 L521 262 L521 444 L312 435 Q326 419 359 408 Q392 397 404 384 L383 358 Z" /><glyph glyph-name="uni8FC1" unicode="&#x8fc1;&#x9077;" d="M441 390 L375 376 Q334 367 308 362 L291 402 Q308 413 335 408 Q370 402 379 404 Q391 406 467 411 L507 504 Q489 512 461 507 Q430 501 419 504 Q408 457 361 423 L344 442 L351 446 L351 682 L409 651 L474 651 L474 733 L343 713 L300 773 Q375 764 681 771 Q684 769 705 761 L776 807 L823 742 Q821 723 784 728 Q721 739 731 738 Q694 741 627 745 Q627 741 626 739 Q635 735 670 722 L673 701 L651 689 L656 667 Q660 665 659 665 L711 665 Q745 692 754 700 L817 661 L783 619 L785 588 Q787 568 787 555 Q787 538 780 525 L746 473 L711 486 L711 516 L529 516 L562 466 L557 448 L529 427 Q531 421 531 419 L631 410 L628 476 L635 478 L670 423 Q747 419 808 451 L851 416 Q833 384 827 372 L685 398 L681 393 Q699 367 703 364 Q749 330 775 317 Q826 292 880 272 Q887 269 903 267 L928 261 Q880 255 823 209 Q749 239 683 310 L665 296 L671 229 Q638 220 584 217 Q515 214 497 211 Q495 181 493 125 L496 125 Q498 127 506 141 Q617 141 631 142 Q698 149 740 186 Q759 139 760 133 Q762 114 737 97 Q582 64 467 96 Q453 112 443 122 L451 288 Q437 295 423 277 Q377 216 297 161 Q287 154 267 152 Q415 319 445 382 L441 390 ZM284 19 Q225 86 222 107 Q143 67 89 5 L68 5 L24 83 L185 143 L193 293 L46 248 L26 311 Q50 317 103 315 Q155 312 181 320 Q182 318 186 314 L237 370 L298 307 L259 282 L247 144 Q249 145 253 145 Q269 121 281 105 Q353 60 480 48 Q578 39 772 57 Q805 60 856 67 L939 79 Q959 81 976 78 Q831 42 803 -48 L593 -48 L513 -44 Q441 -36 406 -28 L323 2 L284 19 ZM70 596 Q159 580 246 539 Q259 484 242 460 Q226 436 184 447 Q140 544 70 596 ZM280 728 Q287 704 295 672 Q275 649 260 646 Q243 643 215 656 Q213 672 133 792 Q240 759 280 728 ZM471 332 L499 330 Q506 330 527 333 Q544 336 554 335 Q602 330 619 363 L629 368 L654 355 L657 358 L633 398 L513 391 L471 332 ZM508 240 L606 245 L601 317 L512 309 Q516 313 495 289 L508 240 ZM476 628 L415 620 L405 561 L421 539 L476 542 L476 628 ZM654 638 L654 551 L712 551 L712 633 L654 638 ZM598 660 L598 743 L520 734 L552 706 L521 660 L598 660 ZM589 548 Q599 571 597 634 L540 630 L540 545 L589 548 Z" /><glyph glyph-name="uni4F11" unicode="&#x4f11;" d="M1004 111 Q962 118 896 91 L842 72 Q748 179 734 196 Q709 229 692 317 Q682 373 679 415 L679 520 L650 515 L651 411 Q659 245 661 161 Q663 84 657 35 Q657 33 633 -35 L596 -60 Q572 -43 573 -12 Q579 184 579 281 Q579 287 569 376 L556 361 Q538 311 457 204 Q435 173 351 73 Q343 63 324 60 Q418 196 454 273 Q499 371 545 512 L447 499 L355 478 L321 537 L558 537 L558 624 Q558 639 555 669 L552 715 Q550 746 545 755 Q540 764 510 784 L599 824 Q703 782 692 786 Q690 767 671 751 Q646 730 642 723 Q652 534 650 544 Q701 537 771 573 Q807 595 827 609 Q834 600 870 572 Q897 551 903 527 Q901 522 890 502 Q838 508 835 509 Q806 518 770 515 L698 515 Q699 442 745 358 Q772 304 831 250 Q891 194 1018 125 Q1019 125 1029 113 L1004 111 ZM229 59 Q233 114 226 278 Q225 307 226 351 L227 424 Q227 468 222 500 Q-31 284 -22 290 L-28 294 Q-17 312 -20 309 Q70 396 78 406 Q168 512 223 593 Q225 596 279 713 L259 765 Q275 774 305 770 Q338 766 353 770 L405 715 L401 684 Q387 678 366 671 L290 578 L290 417 L297 152 Q297 70 287 24 Q273 -32 248 -50 L236 -57 Q226 -61 220 -65 L229 59 Z" /><glyph glyph-name="uni5EF6" unicode="&#x5ef6;" d="M808 -18 Q663 -18 632 -17 Q555 -14 488 -4 Q403 10 338 50 L254 108 Q152 -27 14 -78 Q125 9 135 22 L225 148 Q199 197 196 206 Q199 200 178 262 Q153 234 99 176 L40 213 Q58 223 95 246 Q130 267 148 277 L168 357 Q175 352 203 341 Q224 333 232 319 Q224 301 217 290 Q225 272 241 232 L247 234 L292 442 L185 413 Q153 463 145 474 L175 483 L252 666 L246 673 L123 637 L90 693 L242 709 L314 781 Q318 774 348 738 Q369 712 369 686 L325 663 Q270 592 233 482 L288 482 L333 530 L393 465 Q376 449 351 363 L303 189 Q301 179 301 175 Q321 150 419 106 Q443 119 437 151 Q433 173 431 239 Q423 480 420 595 Q420 596 424 601 L503 559 L510 537 L496 512 L496 254 L570 254 L577 322 Q579 518 579 615 L579 691 Q464 660 450 657 Q433 653 431 653 Q421 653 417 668 Q627 770 692 837 Q769 791 789 760 L766 724 L626 696 Q625 694 625 689 L672 665 L655 629 L655 480 Q674 483 750 536 L818 485 L816 455 L656 442 L656 260 Q731 242 780 311 L873 244 L857 205 L507 186 L456 102 Q593 84 985 113 Q894 68 888 63 Q874 52 808 -18 Z" /><glyph glyph-name="uni534E" unicode="&#x534e;&#x83ef;" d="M181 228 Q171 254 155 289 L276 289 L284 378 Q161 370 31 329 L7 408 L278 408 L278 501 Q186 490 181 490 L160 551 L306 551 L310 556 L289 663 L107 629 L84 699 L285 699 Q284 697 287 782 L238 804 L316 850 Q386 835 413 792 Q378 761 381 763 L381 706 L422 711 Q426 712 464 714 Q473 699 482 681 L380 667 Q374 586 331 562 Q353 548 357 548 Q475 548 534 549 Q621 549 665 552 Q678 553 713 568 Q722 571 761 592 Q806 573 828 530 L797 498 L712 505 L710 500 L753 467 L724 430 L738 423 Q804 425 870 429 Q880 430 897 443 L921 469 Q996 378 993 389 L964 353 Q928 368 717 388 Q715 371 711 346 Q705 316 704 307 L711 301 L774 336 L828 300 Q840 267 799 241 Q629 271 529 256 Q520 204 533 171 Q721 171 758 172 Q777 173 817 192 Q830 197 859 217 Q865 209 898 183 Q923 162 932 141 Q926 135 917 124 L901 104 Q759 137 716 136 L529 136 L529 13 Q528 -39 482 -86 Q481 -87 453 -100 L432 -78 L441 140 Q253 134 87 84 L52 157 L439 172 Q433 263 434 260 L181 228 ZM915 700 Q923 675 897 665 L676 674 Q673 668 664 644 Q657 626 651 616 Q634 586 604 576 L579 606 L585 668 L518 657 Q497 724 500 713 L600 713 L616 800 L559 837 Q600 847 643 860 Q758 804 754 810 Q753 778 725 764 Q697 752 693 718 Q767 715 775 716 Q818 722 844 759 L915 700 ZM444 390 Q431 383 397 383 Q367 384 352 370 L352 297 Q369 286 397 289 Q431 292 444 288 L444 390 ZM527 506 Q525 502 525 499 L549 484 L530 461 L530 417 Q634 424 626 423 L631 506 L527 506 ZM327 505 L327 500 L368 470 L355 415 L447 415 Q445 475 443 505 L327 505 ZM599 293 Q611 310 613 339 Q615 377 618 386 L528 386 L528 306 Q541 291 562 292 L599 293 Z" /><glyph glyph-name="uni81EA" unicode="&#x81ea;" d="M311 24 Q302 -48 246 -83 L230 -64 Q239 125 239 115 Q239 202 233 376 L229 531 Q229 571 208 590 L164 605 L243 648 L331 602 Q433 734 457 789 L409 830 L513 843 L584 772 L580 742 L414 618 L438 609 Q604 615 692 619 Q708 620 725 634 Q733 639 765 669 Q821 647 836 580 L809 548 L806 480 L809 301 Q811 181 811 121 Q811 30 785 -13 Q782 -19 752 -61 L714 -30 Q713 -13 706 37 Q587 47 311 24 ZM719 119 L710 575 Q472 572 306 554 L306 440 Q359 440 368 441 Q490 451 550 461 L623 490 Q649 454 652 451 Q672 427 652 410 L483 399 Q371 391 313 386 L313 272 L563 272 L625 327 Q662 285 667 278 Q682 258 668 239 L311 220 L311 70 Q634 80 713 89 L719 119 Z" /><glyph glyph-name="uni5411" unicode="&#x5411;" d="M733 561 L244 517 L241 485 Q243 275 243 172 Q243 69 241 57 Q236 30 206 -29 Q204 -33 179 -47 Q143 -24 151 19 L157 99 L166 268 L166 520 L138 561 L115 572 Q122 594 144 603 Q151 606 163 609 L182 614 Q200 620 220 606 L255 582 Q342 661 406 759 Q396 776 372 812 Q378 818 377 818 Q473 806 498 790 Q525 773 528 743 Q518 718 489 705 Q465 695 428 664 Q381 622 304 588 Q302 587 294 578 Q336 578 354 579 Q388 581 456 587 L486 593 Q505 597 515 598 L711 614 L758 670 Q868 603 882 579 L884 554 Q878 550 867 540 Q856 531 850 527 Q845 502 850 317 Q856 198 852 123 Q849 30 785 -28 Q744 -66 711 -54 Q709 -30 709 -22 Q697 17 626 65 L630 70 L742 70 L750 144 Q754 250 752 304 Q751 335 742 440 L733 561 ZM355 390 Q347 397 327 409 L364 444 L435 413 L551 433 L588 476 L697 412 L654 360 L654 233 Q651 187 630 171 Q609 155 562 163 L548 191 L433 183 Q438 105 394 57 Q370 61 355 86 L355 390 ZM549 250 Q561 312 551 389 L436 378 L436 233 L549 250 Z" /><glyph glyph-name="uni4F3C" unicode="&#x4f3c;" d="M326 -18 Q306 -7 297 -3 Q335 228 312 513 Q232 435 220 425 Q177 388 119 346 Q91 325 14 277 Q-3 289 14 304 Q26 315 87 366 Q132 403 159 429 Q209 476 248 537 Q323 650 356 743 Q360 758 361 764 L321 814 L437 824 L490 750 L463 714 Q496 726 528 736 L583 716 L594 679 L567 644 L563 644 L556 320 L563 317 Q631 427 645 448 Q721 555 740 570 Q733 552 735 555 Q725 534 690 468 Q662 414 646 381 Q589 264 556 179 Q536 133 522 64 Q508 -6 441 9 Q435 24 435 26 Q435 33 437 58 Q438 77 437 89 Q437 91 418 150 Q413 149 491 216 L491 357 Q487 535 486 624 Q486 671 448 702 L380 601 Q386 582 397 559 L390 558 Q380 501 380 489 Q380 444 385 219 L388 78 Q388 67 380 19 L326 -18 ZM798 776 Q850 798 872 806 Q871 807 970 753 L981 730 L945 681 L938 683 L919 495 Q901 349 890 276 Q890 274 864 205 Q926 182 934 180 Q987 167 995 125 Q1001 87 970 53 Q975 58 925 19 Q902 26 894 52 Q879 104 838 167 Q789 124 796 131 Q725 68 625 27 L567 1 Q530 -16 508 -25 Q473 -39 403 -63 Q401 -63 385 -58 L402 -44 L555 21 Q671 77 748 173 Q750 176 791 269 Q794 276 814 407 Q832 527 834 726 L833 744 L798 776 ZM692 553 Q676 583 676 587 Q676 683 643 748 L643 767 Q669 755 668 756 L699 733 Q719 719 730 710 Q764 679 770 636 Q770 611 746 590 Q746 591 692 553 Z" /><glyph glyph-name="uni540E" unicode="&#x540e;" d="M755 9 Q744 2 730 -4 Q726 0 717 6 L702 18 L700 49 Q528 43 462 25 Q454 -29 453 -31 Q438 -70 401 -88 L384 -63 Q387 -63 388 -62 L382 163 Q382 170 384 181 Q387 194 387 199 L381 301 L351 322 Q409 372 481 322 Q613 335 710 347 L714 342 Q733 367 731 365 Q747 383 756 385 Q765 388 786 380 Q837 359 851 324 Q849 332 856 294 L828 274 Q823 196 825 165 Q827 98 798 56 Q794 50 755 9 ZM53 -56 Q119 19 137 38 Q170 69 187 127 Q226 251 222 370 Q221 397 223 450 Q225 504 223 530 Q223 537 205 661 L161 682 L256 727 Q264 722 280 716 Q299 709 305 706 Q334 691 339 658 Q344 660 586 788 L563 844 Q663 844 670 842 Q721 829 761 773 L729 721 L338 626 Q333 625 300 622 L300 482 Q382 489 538 501 L776 519 Q806 544 834 569 L931 509 L946 472 L923 446 Q618 471 303 422 L294 368 Q268 230 263 208 Q244 123 169 32 Q152 11 79 -55 Q80 -54 56 -63 L53 -56 ZM460 255 L460 86 L701 107 L701 277 L460 255 Z" /><glyph glyph-name="uni884C" unicode="&#x884c;" d="M382 452 L854 478 Q893 514 902 523 L994 462 L970 413 Q894 438 761 438 Q759 434 759 430 L798 410 Q801 397 782 373 Q771 360 771 346 L774 53 Q772 -22 712 -60 L655 -95 Q643 -72 644 -67 Q644 -36 594 16 L589 19 L583 28 L669 30 Q682 113 680 437 Q460 407 398 376 L382 452 ZM281 -107 Q251 -86 253 -51 Q266 120 257 276 L257 312 Q258 336 257 348 Q257 361 254 377 Q238 366 133 290 Q61 238 11 210 L6 214 Q17 229 13 226 Q131 310 213 415 Q215 418 326 549 Q367 597 347 649 Q381 652 408 627 Q413 623 430 604 Q443 590 453 583 L449 547 Q421 551 400 528 Q361 486 365 489 Q360 485 321 441 Q333 408 329 318 Q325 217 331 16 Q333 -37 315 -67 Q315 -68 281 -107 ZM82 523 Q92 545 91 544 L209 644 Q273 700 347 824 L327 866 L392 866 Q399 858 438 828 Q467 804 476 780 L366 701 Q300 653 258 625 Q228 605 106 533 L82 523 ZM473 683 L745 689 L795 746 L880 652 L892 658 L879 620 Q704 676 484 615 L473 683 Z" /><glyph glyph-name="uni821F" unicode="&#x821f;" d="M404 362 Q395 265 396 268 Q378 178 364 149 Q341 101 292 54 Q224 -13 64 -106 L40 -121 Q34 -123 20 -115 Q179 6 187 17 Q263 61 303 152 Q345 246 330 357 L122 316 Q113 345 93 400 L331 400 Q331 471 330 485 Q323 588 317 625 L287 698 Q301 719 328 708 Q362 692 394 679 Q462 766 456 759 L458 757 L478 804 L483 804 L469 876 L515 882 Q579 840 587 834 Q590 831 606 800 Q463 701 397 657 Q414 652 421 653 L610 672 Q625 674 655 676 L717 733 L749 705 Q769 688 780 677 Q807 653 785 623 L763 596 L756 598 Q761 526 766 408 L828 413 L882 456 Q946 417 980 345 L960 318 Q866 356 773 356 Q777 208 778 147 Q779 81 735 3 Q722 -20 658 -54 Q656 -55 640 -55 Q613 20 601 30 L577 25 Q572 36 595 42 Q617 47 657 46 Q689 127 674 368 L560 368 Q560 367 558 365 Q562 362 571 358 L587 349 L587 327 Q578 310 578 220 L581 139 Q584 83 529 53 Q516 64 514 65 L505 368 L404 362 ZM672 400 L663 628 L633 633 L404 616 L404 400 L672 400 ZM500 548 Q506 551 508 551 L521 551 Q521 564 520 573 L494 564 Q494 563 476 605 Q490 603 492 602 Q513 591 555 567 Q596 544 592 483 Q589 448 566 438 Q542 428 510 450 L500 548 Z" /><glyph glyph-name="uni4F1A" unicode="&#x4f1a;&#x6703;" d="M985 551 Q876 490 882 500 Q837 501 753 540 Q690 569 592 676 Q583 685 556 740 Q553 746 550 757 Q546 771 543 778 Q391 629 249 538 L320 501 L711 501 L745 533 L832 487 L814 455 L809 456 Q815 384 816 348 Q818 261 732 245 L697 268 L294 268 L296 246 L272 229 L242 246 L242 533 Q147 473 129 463 Q70 431 14 413 Q258 554 493 840 L472 857 Q458 867 451 878 L523 884 L591 833 Q583 806 578 780 Q613 706 655 682 Q665 675 697 659 Q820 602 846 594 Q942 566 980 559 L985 551 ZM753 -87 Q713 -109 703 -111 Q694 -113 679 -104 L675 -45 Q554 -32 340 -43 L342 -80 Q327 -115 317 -121 Q308 -127 283 -117 L278 182 L250 198 L311 220 L364 198 L659 198 Q679 234 686 248 L781 194 Q774 177 771 58 Q769 -4 764 -53 Q763 -60 759 -70 L753 -87 ZM633 78 Q601 76 489 79 Q399 82 344 73 L338 -12 L675 -2 L675 169 L344 169 L344 135 L347 98 L563 107 L604 139 Q628 62 633 78 ZM297 292 Q360 295 352 295 L472 299 L486 306 L486 479 Q430 478 297 474 L297 292 ZM592 306 L595 300 L704 300 Q717 320 717 319 Q718 371 718 477 L559 477 Q559 429 560 405 L563 302 Q567 302 569 301 L643 452 L704 400 L592 306 ZM648 607 L629 590 Q467 586 372 583 Q368 593 359 607 Q379 613 383 613 L543 612 Q552 612 571 625 Q568 623 602 652 L648 607 ZM348 452 Q447 383 441 393 Q452 360 429 331 Q396 324 398 324 Q385 333 380 354 Q374 382 371 387 L343 448 L348 452 Z" /><glyph glyph-name="uni540D" unicode="&#x540d;" d="M412 297 Q341 243 209 182 Q75 119 43 126 Q405 286 742 664 L738 670 L629 655 L512 642 L475 604 L558 546 Q569 493 515 448 L489 452 L446 578 Q328 489 203 424 Q199 428 197 429 Q206 445 209 447 L278 503 Q321 537 346 560 Q371 582 434 657 Q450 675 508 748 L518 766 L492 824 Q504 823 523 825 Q547 828 554 828 Q589 829 613 807 L621 740 L591 719 Q577 707 570 695 Q651 691 765 712 L850 788 Q898 748 947 675 L921 644 Q897 641 895 642 Q869 646 839 618 Q775 557 753 538 Q692 488 600 419 Q585 408 558 391 L515 364 L470 333 L498 314 L790 340 L852 390 L954 320 Q964 284 931 265 L931 168 Q927 112 920 86 Q900 9 818 -1 L800 24 L803 68 L502 37 Q505 -1 487 -31 Q469 -61 439 -68 Q410 -46 411 -11 Q412 11 412 187 L412 297 ZM798 293 Q708 286 651 280 L505 267 Q509 244 505 187 Q500 132 507 99 Q777 110 798 113 L798 293 Z" /><glyph glyph-name="uni8272" unicode="&#x8272;" d="M307 271 Q302 44 306 16 Q354 -4 424 0 Q556 5 661 17 Q682 19 792 45 Q852 60 871 148 L880 191 Q890 109 893 92 Q898 66 915 47 Q953 1 910 -39 Q899 -49 835 -69 Q844 -66 635 -98 Q622 -100 601 -98 L566 -96 Q411 -94 355 -85 Q276 -71 237 -17 L236 28 Q234 59 235 78 L241 208 Q246 295 247 338 Q248 391 246 496 Q246 498 242 514 Q116 428 67 413 Q93 439 163 496 Q225 547 256 581 Q357 695 402 790 L373 841 Q375 847 376 848 Q433 879 482 835 Q526 794 532 778 Q492 729 483 716 Q486 719 486 711 L620 711 Q657 710 687 743 L727 784 L797 696 L788 659 Q783 657 522 498 L526 490 L671 490 L745 553 L812 474 L787 436 L776 274 Q773 234 738 210 Q728 203 709 186 Q673 208 681 282 L621 282 Q471 285 440 284 Q423 284 307 271 ZM320 490 L470 490 Q599 630 628 677 L623 686 L436 673 L270 531 L320 490 ZM460 319 Q464 368 470 460 Q395 455 385 455 Q344 455 324 422 L313 329 Q360 313 460 319 ZM564 320 Q580 326 619 322 Q657 318 677 328 L677 454 L582 459 L553 362 L564 320 Z" /><glyph glyph-name="uni51B0" unicode="&#x51b0;" d="M399 41 L462 53 Q475 152 475 147 L475 356 L469 728 Q468 765 434 778 Q418 784 410 788 L410 794 L495 838 L578 800 Q573 807 603 760 L579 715 Q552 699 552 628 Q551 596 558 470 L572 482 Q580 488 584 492 L619 523 Q640 541 653 554 Q685 584 664 626 Q663 627 658 641 Q654 641 706 650 Q734 654 749 641 Q787 608 792 602 Q814 576 810 544 L617 469 Q624 418 677 351 Q686 340 706 318 Q725 296 734 284 Q757 256 835 212 Q874 189 940 154 Q854 146 850 145 Q847 144 767 104 Q686 170 663 207 Q611 287 589 457 L559 445 L558 341 Q557 276 558 237 Q563 91 556 60 Q537 -22 510 -46 Q476 -78 449 -79 L399 41 ZM236 432 L197 490 L371 525 L405 584 Q481 562 449 488 Q443 474 436 449 Q428 418 425 409 Q422 399 413 376 L401 342 Q371 253 298 165 Q215 66 89 -7 Q79 -13 65 -14 Q322 222 378 478 Q247 429 252 432 L236 432 ZM264 426 Q225 359 214 342 Q168 266 164 188 Q161 139 119 110 Q112 115 94 125 L60 259 L89 258 Q200 359 251 431 L264 426 ZM94 687 Q124 692 246 602 Q258 553 228 527 Q213 514 202 514 Q192 515 164 528 Q152 554 128 609 L94 687 Z" /><glyph glyph-name="uni5173" unicode="&#x5173;&#x95dc;" d="M291 -86 Q403 7 413 121 Q395 133 339 119 L324 70 L314 69 Q304 92 304 95 L305 165 Q306 209 304 235 Q303 241 279 301 L272 318 L316 334 L315 335 Q324 337 342 339 L342 346 L319 353 L279 464 L308 453 Q322 462 373 533 Q372 538 369 540 Q293 532 255 525 Q237 523 237 493 Q238 438 238 327 L238 188 Q244 138 242 78 Q239 9 209 -38 Q205 -44 197 -52 L184 -67 Q172 -56 152 -40 Q163 48 160 726 L109 756 Q154 774 178 785 L239 751 Q309 756 359 761 L400 813 Q431 795 462 736 L432 686 L432 546 L403 539 L414 502 L342 436 L366 372 Q406 411 455 496 L478 477 Q492 465 500 457 L446 400 L518 325 L572 331 L579 345 Q578 350 577 350 Q555 362 548 394 Q538 434 531 444 Q530 445 526 465 L553 459 L605 534 L602 541 L573 535 L554 548 L554 756 Q538 762 531 766 L510 781 L569 812 L614 788 L718 788 Q754 788 783 819 L814 851 L886 787 Q898 759 865 742 L865 629 Q865 606 867 523 Q869 458 869 417 L867 137 Q867 61 841 12 L792 -62 L765 -42 Q781 192 783 256 L778 554 Q756 548 705 547 Q660 546 635 535 L623 548 L618 544 Q633 526 652 501 L571 434 L601 372 L685 495 L707 434 Q695 426 668 402 L701 361 Q703 363 707 365 L698 350 L727 285 L703 266 L733 237 L707 215 L720 198 L706 105 Q703 89 691 72 Q679 54 664 72 L664 146 L604 141 Q607 62 601 33 Q594 4 571 -10 Q550 2 550 43 L550 277 L526 281 L515 308 Q478 267 447 278 L437 309 L311 262 L366 221 L349 207 L343 149 L411 165 Q418 185 414 220 Q410 260 413 277 L490 242 L477 221 Q465 102 460 85 Q449 40 409 -3 Q396 -18 314 -85 Q312 -87 296 -92 Q292 -88 291 -86 ZM673 287 L678 287 Q655 394 658 388 L608 334 L670 324 L568 284 L608 259 L601 173 L673 173 L673 287 ZM621 676 L767 676 L767 749 L621 749 L621 676 ZM768 659 Q746 649 696 650 Q650 650 627 638 L627 577 L768 584 L768 659 ZM356 661 L356 736 L244 724 L237 655 L356 661 ZM353 635 L241 629 L241 563 L349 574 L353 635 ZM432 380 L426 383 L381 332 Q383 328 383 326 L438 332 L432 380 Z" /><glyph glyph-name="uni706F" unicode="&#x706f;&#x71c8;" d="M502 85 L494 176 L468 180 Q469 214 464 298 Q460 374 463 419 L484 410 Q492 404 496 406 L677 406 L708 458 L787 398 L768 357 L778 256 Q612 246 528 242 L506 194 L517 186 Q524 181 528 177 Q569 133 573 127 Q588 102 565 79 Q559 73 531 51 L502 85 ZM192 760 Q192 761 245 804 Q306 793 327 745 L301 711 L284 380 Q283 379 342 521 L319 556 L359 568 Q363 560 389 542 Q410 527 412 506 Q347 419 277 360 Q246 166 198 100 Q118 -7 2 -68 L-3 -64 Q2 -51 4 -50 Q23 -42 87 20 Q152 81 169 112 Q211 188 215 261 L221 352 Q226 412 227 442 Q230 489 232 585 L232 740 L192 760 ZM713 511 L677 611 Q670 633 654 709 Q652 719 661 731 L673 710 L782 827 L831 761 Q827 743 797 733 Q759 721 676 693 L724 601 L829 712 L878 647 Q860 625 816 610 Q767 594 750 580 Q823 481 1003 437 L998 430 Q936 416 930 414 L870 374 L799 411 Q793 413 790 417 Q771 440 735 486 L713 511 ZM712 512 L701 496 L533 488 L513 520 L488 486 Q429 393 332 304 L308 291 L304 297 L331 328 L403 421 Q401 418 436 488 Q508 626 503 614 Q523 663 526 709 L400 695 L387 735 L547 735 L589 780 Q586 787 615 743 Q630 721 623 699 L606 690 Q573 626 521 531 L619 523 L672 551 L712 512 ZM609 43 L670 180 Q674 180 676 179 L656 208 L693 235 Q766 143 764 159 L639 44 L798 44 L849 83 L917 27 L901 -2 Q615 27 348 -9 L343 4 L337 43 L609 43 ZM685 281 L685 376 Q594 370 508 367 Q515 309 521 267 L685 281 ZM107 239 Q83 248 83 279 Q151 366 167 494 Q179 476 179 475 Q199 366 162 289 Q147 257 107 239 ZM304 118 L314 123 L295 286 Q297 286 297 287 Q356 244 385 191 Q392 177 388 157 Q383 137 369 126 Q367 124 324 95 L304 118 ZM428 552 Q396 577 393 668 L464 634 Q474 601 469 590 Q463 578 428 552 Z" /><glyph glyph-name="uni6C5F" unicode="&#x6c5f;" d="M629 75 L620 122 L614 121 L614 73 Q567 70 469 62 L457 87 L453 86 L451 57 Q416 54 299 40 Q302 84 260 114 L264 120 L524 120 Q526 161 529 613 L366 589 Q363 600 359 629 L341 656 L692 668 L755 749 L853 654 L835 622 Q684 635 592 613 Q574 618 569 620 L558 607 L612 601 Q642 594 657 569 Q634 533 631 527 Q619 505 619 491 Q618 472 619 438 L619 385 Q619 370 617 314 Q615 270 615 243 Q615 234 620 134 Q650 128 653 128 L750 132 Q780 134 795 157 Q789 148 831 205 Q900 138 930 107 Q942 95 927 75 L629 75 ZM205 -38 L176 -45 L165 -17 Q164 45 116 99 Q114 102 104 111 Q95 118 90 125 L152 125 Q169 161 182 194 Q196 229 220 299 L255 387 L313 573 Q325 560 315 528 Q248 268 242 214 Q231 103 248 40 Q249 38 251 18 L205 -38 ZM225 494 Q222 398 157 384 Q136 419 136 421 Q117 507 63 567 Q90 571 144 546 Q198 522 225 494 ZM338 692 Q332 642 263 605 L235 624 Q243 709 197 804 Q316 735 338 692 Z" /><glyph glyph-name="uni6C60" unicode="&#x6c60;" d="M288 241 L234 299 Q234 309 227 159 Q223 76 243 19 Q217 -10 187 -46 L144 -20 Q153 59 62 129 L139 129 Q171 208 214 349 Q263 511 286 572 Q293 539 267 444 Q236 312 235 311 Q280 330 344 370 L344 551 L302 576 L362 620 Q388 608 440 582 Q447 544 416 519 L400 374 L406 372 Q412 428 450 435 L500 476 L500 731 Q477 745 437 771 Q509 834 606 782 L623 758 L590 713 Q576 688 577 678 Q584 578 573 511 Q582 519 610 541 Q633 559 645 571 Q683 607 693 651 L687 679 L719 681 L791 617 Q785 635 753 539 L759 387 Q761 285 754 259 Q750 242 738 219 Q734 189 679 129 L654 145 L644 199 Q631 206 609 216 Q606 209 657 233 Q668 244 670 290 Q671 307 671 393 L671 509 L673 532 L698 555 L697 583 L690 583 L690 558 Q691 557 685 560 Q637 505 647 514 Q632 500 583 464 L585 384 Q587 332 587 298 Q587 281 585 251 Q582 217 582 204 Q581 176 585 147 Q590 116 570 81 L555 88 L545 48 Q596 48 602 49 Q693 61 740 70 Q774 78 817 95 Q852 109 871 162 Q875 171 895 260 Q900 260 907 259 Q904 194 907 176 Q914 130 951 103 Q951 57 949 52 Q947 46 918 10 L867 -2 L842 4 Q806 -25 746 -28 L670 -35 Q640 -39 621 -40 L562 -37 Q525 -35 507 -38 Q475 -43 421 -17 L411 26 L411 -15 L372 -9 L346 18 Q340 214 352 307 L288 241 ZM404 348 Q416 314 402 264 Q399 251 399 235 Q399 213 402 168 L404 101 L404 56 Q421 60 457 52 Q490 45 507 51 Q500 98 500 103 L503 399 L528 431 L525 433 L461 376 L458 379 L446 359 Q437 356 404 348 ZM158 396 L134 415 Q131 462 47 564 Q49 567 52 569 L92 551 Q214 556 225 475 L201 431 L158 396 ZM312 664 Q278 632 262 618 Q231 631 228 664 Q219 732 168 790 L170 796 L198 790 Q231 773 274 747 Q302 730 309 714 Q316 699 312 664 Z" /><glyph glyph-name="uni519C" unicode="&#x519c;&#x8fb2;" d="M177 411 L241 440 L304 402 L744 413 L728 484 Q698 490 706 490 Q682 491 643 490 L423 489 Q404 489 371 487 Q331 485 319 485 Q313 441 276 430 Q249 444 248 475 L236 693 L191 714 Q235 746 273 733 Q325 715 374 718 Q382 718 404 720 L404 787 L382 812 L413 828 Q453 812 498 792 L489 756 Q484 735 494 719 L578 724 L582 809 L552 829 Q573 851 614 847 Q654 842 683 813 L659 772 L659 731 L735 731 L787 777 Q796 778 827 749 L865 714 Q862 690 861 688 Q848 669 846 625 Q845 596 845 538 Q845 465 787 430 Q786 430 778 420 L801 414 L879 471 Q950 430 929 384 Q759 395 294 378 L279 249 Q418 241 812 236 Q895 297 897 299 L964 237 L953 203 L781 215 Q782 202 801 184 Q819 168 818 150 L683 114 Q682 112 682 106 Q847 31 980 23 L980 13 Q913 -9 900 -16 Q897 -17 821 -63 Q800 -49 764 -30 L703 2 Q630 43 594 93 Q504 58 255 -86 L248 -26 Q243 9 241 31 L336 52 L336 199 L281 202 Q255 129 253 126 Q215 60 186 34 Q164 13 41 -82 Q40 -83 24 -88 L19 -81 Q39 -61 46 -56 Q146 22 173 87 Q197 146 203 187 L215 342 Q219 384 177 403 L177 411 ZM808 380 L875 330 L865 303 Q519 307 337 310 L329 335 L748 335 L808 380 ZM555 206 L429 206 L429 73 Q489 83 581 109 L555 206 ZM487 692 L487 614 L573 619 L573 692 L487 692 ZM590 210 Q594 175 645 136 Q675 147 718 210 L590 210 ZM486 515 Q574 543 564 532 L569 584 Q529 595 483 585 L486 515 ZM649 524 L733 524 L741 583 Q692 587 649 593 L649 524 ZM322 617 L399 617 L399 690 L322 686 L322 617 ZM322 521 L401 517 L401 583 Q335 583 322 575 L322 521 ZM660 695 Q648 643 664 625 L708 654 L734 622 Q751 660 735 695 L660 695 Z" /><glyph glyph-name="uni90A3" unicode="&#x90a3;" d="M66 7 Q104 41 125 62 Q203 142 225 191 L288 348 L211 333 L180 313 L110 400 Q141 405 198 398 Q258 392 287 395 L310 523 Q260 525 182 487 L142 559 Q155 564 223 563 Q290 561 305 556 Q333 597 319 711 Q273 701 267 699 Q278 702 215 679 L167 766 L467 766 L531 821 L566 785 Q588 763 580 733 L557 716 L557 571 L584 580 Q603 605 601 603 Q672 567 630 521 L551 527 L545 403 Q563 403 581 418 Q603 436 611 439 Q603 441 656 388 Q656 380 658 352 L619 328 L611 353 L547 358 Q543 288 542 260 Q540 166 502 98 Q466 35 423 10 L396 -1 Q398 39 347 115 Q417 117 437 102 L466 241 Q467 240 470 240 L470 362 L353 354 Q281 139 64 -22 Q23 -52 2 -51 L66 7 ZM869 116 Q833 202 823 224 Q830 234 848 232 Q870 230 878 234 Q886 263 886 260 Q895 342 861 411 L809 515 L852 697 L750 697 L750 563 Q750 468 752 278 L753 162 Q754 91 753 46 Q753 51 739 -26 L685 -61 Q666 -53 666 -28 Q674 195 674 239 Q677 343 675 472 Q675 493 672 535 L668 598 Q667 626 667 686 Q662 693 632 727 Q626 716 695 761 Q710 756 711 755 Q726 738 786 736 Q800 736 822 738 Q850 740 860 740 L904 790 L954 750 Q982 726 978 691 Q974 688 841 527 Q873 497 881 491 Q954 434 968 409 Q981 384 983 375 Q1010 265 977 205 Q945 146 869 116 ZM471 530 L411 530 Q386 530 382 508 Q374 476 356 394 L471 404 L471 530 ZM471 572 L471 722 L375 722 Q377 711 402 698 Q424 686 422 665 L395 644 L388 563 L471 572 Z" /><glyph glyph-name="uni8FC5" unicode="&#x8fc5;" d="M539 470 Q538 470 538 469 Q538 470 539 470 L595 512 L631 463 Q642 475 532 441 L538 469 Q530 449 530 446 Q537 327 517 244 Q502 179 450 137 Q447 135 427 117 L411 135 Q418 161 460 441 L345 422 L316 473 L459 473 L468 656 L439 663 Q439 661 440 660 L374 651 L340 723 L657 723 L711 816 Q769 781 804 759 L794 711 L750 676 Q708 583 719 435 Q730 309 804 251 L880 339 Q875 311 877 316 Q843 248 843 175 L843 164 Q855 138 823 108 Q796 104 752 138 Q705 174 675 252 Q636 353 643 498 Q644 518 660 664 Q661 670 667 685 Q582 675 523 666 L521 660 L549 648 Q564 629 552 602 Q545 589 543 558 L539 470 ZM202 122 L202 268 Q153 250 81 227 L38 296 L186 308 L227 375 L307 318 Q287 300 285 269 Q284 262 285 243 Q285 226 284 217 Q283 211 284 197 Q284 184 283 177 Q282 168 275 149 Q284 142 307 122 Q329 103 342 93 Q402 47 495 49 Q635 53 735 60 Q782 63 948 82 Q955 82 962 78 Q844 -5 825 -46 L658 -54 L645 -34 L642 -57 L584 -54 Q548 -52 526 -50 Q436 -40 370 -3 Q349 9 306 50 L257 111 L263 130 Q228 83 110 -44 L48 45 L202 122 ZM142 752 L162 749 Q175 747 182 745 L258 718 Q317 696 288 640 Q265 596 239 593 Q203 601 192 642 Q176 709 139 744 L142 752 ZM273 489 Q272 422 202 382 L182 410 Q136 509 105 535 Q104 536 106 541 Q236 514 273 489 Z" /><glyph glyph-name="uni5C3D" unicode="&#x5c3d;&#x76e1;" d="M110 335 Q88 375 74 399 Q207 402 450 406 L450 467 Q409 471 340 462 Q255 452 228 451 L207 490 L450 501 L450 581 L85 540 L52 584 Q126 594 255 599 Q396 605 455 611 L451 666 L198 643 L169 682 L449 694 L455 738 L404 776 Q487 832 569 771 Q571 757 554 736 Q538 716 542 699 L635 699 L710 766 L758 713 Q775 665 736 647 Q738 642 744 621 Q806 610 851 683 L935 593 L916 565 Q766 580 737 575 L737 481 Q589 481 542 473 L542 411 Q672 415 734 418 L795 471 L876 395 Q872 371 845 371 L738 374 Q611 374 483 371 Q373 367 318 362 Q280 358 221 350 L110 335 ZM420 358 L459 326 Q466 290 441 235 L545 235 L545 362 Q546 362 623 316 L614 242 L648 236 L727 278 L777 217 L745 159 L745 55 Q769 40 799 59 L875 113 Q899 84 949 26 Q952 -2 921 0 L772 9 Q659 18 503 2 L446 -1 Q335 -11 224 -25 L90 -43 L49 31 L294 31 Q300 73 300 68 L302 222 Q302 225 306 245 Q338 222 382 235 L420 358 ZM709 369 L854 305 Q884 292 869 255 Q858 224 818 203 Q791 231 757 280 Q713 345 701 360 L709 369 ZM480 44 L545 40 Q555 143 541 211 Q520 209 480 207 L480 44 ZM424 204 L360 194 L360 35 L424 39 L424 204 ZM291 329 Q307 281 261 205 Q240 170 170 172 L177 213 L291 329 ZM665 221 L605 212 L616 45 L665 48 L665 221 ZM542 509 Q595 504 632 522 L636 585 Q609 584 542 580 L542 509 ZM542 672 L536 615 Q616 615 637 626 Q637 631 642 678 L542 672 Z" /><glyph glyph-name="uni9633" unicode="&#x9633;&#x967d;" d="M677 469 Q808 471 865 517 Q888 511 905 490 L918 470 Q927 456 934 448 Q922 440 887 420 Q636 458 372 416 L355 454 Q311 381 301 366 Q285 343 256 364 Q260 391 224 448 L268 457 Q283 539 240 628 Q244 636 298 729 L293 736 L186 723 L198 514 L208 133 Q213 87 185 15 Q181 4 165 -16 Q140 -45 117 -10 Q128 40 128 210 Q128 466 126 594 L114 728 L114 749 L65 781 Q98 798 127 815 L196 784 Q197 783 202 768 L296 768 L335 812 L393 743 Q377 718 341 688 Q295 650 283 637 Q364 548 352 477 Q407 467 397 468 Q445 467 543 467 Q553 467 585 469 Q610 471 626 471 Q635 472 677 469 ZM634 314 Q622 314 554 309 Q582 271 578 275 Q527 205 406 115 Q284 24 239 23 Q335 100 341 106 Q389 150 435 202 L520 309 Q488 304 447 301 Q453 308 248 158 L242 164 Q252 182 255 184 Q370 291 380 301 L461 423 Q459 426 493 394 Q511 377 502 350 Q553 343 633 344 Q737 346 763 345 L808 388 Q886 277 885 288 L855 265 Q839 249 832 234 L793 134 Q770 73 752 35 L695 -34 Q677 -34 642 -49 Q605 -64 582 -65 Q607 -7 553 45 Q557 47 559 49 L636 25 Q673 56 716 153 Q758 250 765 317 L686 317 L676 308 Q679 301 696 284 Q708 271 707 260 Q544 17 243 -104 L236 -95 L277 -72 Q376 -10 415 19 Q451 43 491 87 Q558 155 619 262 Q624 271 629 285 L639 307 L634 314 ZM725 489 L693 501 L686 563 L518 554 L496 496 L467 479 L444 501 L444 774 L404 799 L454 836 L488 820 Q524 799 559 800 L690 800 L683 813 L733 864 L815 813 Q825 790 811 768 Q807 761 797 750 L784 732 L793 608 Q793 551 760 519 L725 489 ZM555 662 Q520 660 514 641 L524 590 L572 586 L572 589 L692 601 L696 749 L701 749 L688 779 L605 772 Q554 768 525 765 Q509 748 511 725 Q514 680 515 687 L662 687 Q662 681 660 669 L555 662 Z" /><glyph glyph-name="uni5982" unicode="&#x5982;" d="M874 148 L831 162 L845 213 L797 216 Q754 210 694 203 L694 125 Q695 71 643 20 L619 37 L619 594 Q609 602 575 632 L653 648 L708 595 Q708 601 711 619 L810 619 L884 693 L974 620 L928 556 L944 363 Q946 340 946 263 Q946 217 898 169 L874 148 ZM284 509 Q256 503 206 490 Q151 476 128 471 L100 534 Q106 540 107 540 Q167 546 197 550 Q267 558 275 560 Q296 564 300 584 Q313 645 332 753 L283 790 Q379 805 384 805 Q386 805 433 777 Q439 749 401 719 L365 569 L446 569 L509 637 L575 560 L535 517 Q526 490 516 444 L500 368 Q477 279 434 225 L457 225 Q500 187 512 178 Q582 128 516 69 L492 52 L472 63 Q456 88 410 169 L407 178 Q288 67 32 -46 L25 -40 L30 -31 Q33 -25 36 -23 Q42 -19 52 -15 L69 -7 Q153 38 275 138 Q289 149 317 184 L352 228 L294 297 L237 247 L215 274 Q255 414 284 509 ZM791 253 L845 264 Q848 440 831 581 Q762 574 694 568 Q686 528 686 524 Q686 428 687 381 L694 253 L791 253 ZM377 270 Q441 375 458 545 Q420 541 357 519 Q340 454 308 324 L377 270 Z" /><glyph glyph-name="uni597D" unicode="&#x597d;" d="M232 518 L138 498 L139 497 L90 477 L46 541 Q137 549 143 550 Q162 552 191 558 L240 568 L273 751 L236 787 Q252 805 329 810 L367 776 Q350 732 353 736 Q329 704 305 603 Q295 599 287 597 L296 573 L378 586 L443 659 L502 594 Q497 575 494 571 Q474 549 463 503 Q434 389 391 233 Q440 192 447 180 Q452 172 470 101 L426 35 L390 48 L345 164 Q275 98 26 -38 L16 -38 Q14 -32 15 -31 Q57 -13 170 78 Q245 139 275 178 L305 223 L244 310 Q200 250 185 244 L164 261 L232 518 ZM602 -44 Q590 27 537 45 Q539 46 541 50 L622 50 Q649 97 651 153 L654 380 L652 393 L481 376 L454 428 L651 428 Q644 540 638 622 Q649 617 666 608 L693 594 Q702 603 749 713 L745 719 L638 696 Q553 678 532 673 L490 731 L749 745 L819 809 L860 777 Q885 757 893 732 Q810 663 715 587 Q727 578 730 575 L730 435 L825 435 L902 502 L986 425 L970 393 Q801 397 738 390 L738 291 L744 139 Q747 81 712 25 Q676 -34 623 -51 L602 -44 ZM336 276 Q387 422 401 567 L291 533 Q285 517 272 462 Q262 419 249 395 L255 380 Q240 329 242 337 L336 276 Z" /><glyph glyph-name="uni6B22" unicode="&#x6b22;&#x6b61;" d="M138 296 Q155 316 258 456 L289 421 Q267 385 249 359 L310 353 Q306 350 365 446 L416 410 L369 357 L437 357 L471 404 Q480 392 505 354 Q490 338 477 336 Q465 333 404 332 L377 295 L381 278 Q411 272 460 302 Q493 281 483 252 Q461 251 376 244 Q381 195 381 189 Q416 183 453 213 Q487 202 482 165 Q413 159 383 155 L383 107 Q392 94 405 95 Q409 95 415 97 Q422 99 425 99 L472 139 Q479 130 488 116 L503 95 Q496 74 475 73 Q387 67 338 63 L245 53 Q241 -35 175 -51 Q187 -18 188 -10 Q198 70 199 110 Q200 140 197 285 L195 304 Q136 240 5 154 Q4 157 0 161 L138 296 ZM727 488 L706 452 Q713 307 712 314 Q715 285 731 258 Q775 185 799 157 Q867 79 919 52 Q913 55 999 -3 Q872 -1 824 -27 Q706 147 712 137 Q679 193 682 252 Q683 272 683 432 Q668 369 666 363 Q632 238 622 209 Q599 141 539 76 Q488 18 366 -60 Q345 -73 335 -58 L361 -36 Q480 47 482 49 Q554 113 580 215 Q588 246 618 410 L628 475 Q611 501 601 518 Q618 521 652 529 L727 488 ZM584 501 Q555 455 531 415 Q519 397 505 405 Q539 467 645 769 L614 819 L666 828 L724 786 Q714 764 679 697 Q649 641 633 604 L670 597 Q733 599 763 604 Q807 613 816 654 L888 589 L895 558 Q885 540 880 533 L768 509 Q787 577 783 564 Q769 565 608 554 Q606 542 600 518 Q586 504 584 501 ZM305 607 L332 562 L317 538 L317 472 L217 472 Q201 423 198 416 Q198 415 176 404 Q169 432 168 476 Q166 530 164 545 Q154 556 128 582 Q144 589 166 600 Q188 581 221 582 L280 590 L305 607 ZM69 697 L240 697 L240 760 L211 774 Q236 796 258 795 Q279 794 312 770 L298 742 L302 709 Q314 700 324 709 Q339 722 342 723 Q366 708 361 675 L305 667 L296 617 L259 604 Q247 614 247 634 Q247 659 243 668 L85 653 L69 697 ZM390 590 Q468 576 493 636 L529 576 Q521 566 502 547 L502 477 L411 477 Q403 457 399 449 L379 449 Q364 462 363 473 Q361 481 362 496 Q362 512 361 519 L354 593 Q355 588 355 612 L390 590 ZM525 746 L560 698 L548 672 L445 672 Q429 628 423 619 Q416 611 391 604 L391 661 L370 697 L397 707 L400 750 L368 788 L404 806 Q405 805 440 790 Q462 781 469 761 L452 737 L452 704 L489 704 L525 746 ZM241 237 L247 187 L319 187 L322 243 L241 237 ZM245 325 L245 270 L310 270 Q323 287 322 298 Q321 309 305 328 L245 325 ZM315 153 Q264 152 257 149 Q243 143 244 109 Q252 104 321 99 L315 153 ZM402 566 L402 499 L451 502 L460 569 L402 566 ZM264 562 L212 555 L212 497 Q221 492 264 509 L264 562 Z" /></font>
</defs>
</svg>
